<?xml version="1.0" encoding="UTF-8"?>
<svg width="155px" height="100px" viewBox="0 0 155 100" version="1.1" xmlns="http://www.w3.org/2000/svg" xmlns:xlink="http://www.w3.org/1999/xlink">
    <title>BFB1592A-26A1-47DA-A3F9-0FB782F05B12</title>
    <g id="Misc-Modals" stroke="none" stroke-width="1" fill="none" fill-rule="evenodd">
        <g id="Web-/-Modal-/-Patient-Vital-Signs" transform="translate(-415.000000, -615.000000)" fill-rule="nonzero">
            <g id="Content" transform="translate(375.000000, 100.000000)">
                <g transform="translate(20.000000, 80.000000)" id="PHQ">
                    <g transform="translate(0.000000, 415.000000)">
                        <g id="Graphic" transform="translate(20.000000, 20.000000)">
                            <rect id="Rectangle" fill="#000000" x="5.32273819" y="99.5549683" width="134.149376" height="1"></rect>
                            <path d="M139.681337,99.6575251 C139.681337,99.8463968 139.588142,100 139.47258,100 L5.32273819,100 C5.20717614,100 5.11398093,99.8463968 5.11398093,99.6575251 C5.11398093,99.4686534 5.20717614,99.3145861 5.32273819,99.3145861 L139.47258,99.3145861 C139.588142,99.3145861 139.681337,99.4681894 139.681337,99.6575251 Z" id="Path" fill="#9AB5A9"></path>
                            <path d="M150.495709,65.5794166 C148.030696,80.4292766 140.288038,91.2724588 126.845561,94.6795736 C124.273839,95.329255 121.494292,95.7116389 118.50459,95.7933131 C103.648342,96.207717 88.6210807,95.3269347 73.7471256,95.2062796 C63.4686261,95.2062796 53.1873308,95.0401467 42.9092974,94.9566163 C33.8451315,94.8832951 22.0545398,96.7859334 13.5164608,93.685097 C1.36613566,89.2742245 -0.70885564,75.2981859 0.181158592,63.7978974 C0.25664671,62.8173426 0.354501678,61.8548861 0.468665808,60.9179527 C3.25427056,38.1424439 14.3379766,17.5749237 38.8073103,13.7761439 C47.3556407,12.4494017 56.0754503,12.6828229 64.6657186,11.6595747 C79.5168409,9.8901211 94.4383256,3.72418078 109.591866,5.89968527 C122.785046,7.79397055 135.307686,16.7173443 142.602075,27.6008995 C144.195865,29.9838441 145.577311,32.5010517 146.730623,35.1237458 C150.914621,44.6086298 152.187668,55.3826674 150.495709,65.5794166 Z" id="Path" fill="#428EC2"></path>
                            <path d="M10.7187407,44.5784661 C15.3584641,45.1673558 19.736775,47.0379741 23.7697976,49.3294932 C25.6145967,50.3782645 27.4277095,51.5217038 28.9887292,52.9653886 C30.5730477,54.4290279 31.7911091,56.1794552 32.5208276,58.2092454 C33.3782235,60.5982166 33.6536153,63.1403271 33.9140959,65.6485612 C33.9373947,65.8717732 34.0893029,66.0662136 34.3334744,66.0662136 C34.5408337,66.0662136 34.7733557,65.8754857 34.7500569,65.6485612 C34.5105453,63.3426564 34.2654419,61.0116924 33.5893106,58.7837494 C32.9252948,56.5961794 31.8055544,54.629037 30.2058586,52.9858071 C28.6732634,51.411722 26.8321921,50.1601572 24.9454551,49.0473458 C22.887239,47.8338338 20.7516708,46.7442253 18.5373527,45.8453447 C16.0271397,44.8244169 13.4116162,44.0893488 10.7201386,43.747338 C10.4964701,43.7190304 10.3035561,43.9584844 10.3035561,44.1649903 C10.3035561,44.4127973 10.4960042,44.5515507 10.7201386,44.5798582 L10.7187407,44.5784661 Z" id="Path" fill="#FFFFFF"></path>
                            <path d="M28.3885521,50.5740971 L27.9533305,46.3729788 C27.8205273,45.0944987 27.6737448,43.8146264 27.6401946,42.5282573 C27.6103721,41.3138171 27.6867922,40.0905599 28.0283526,38.9188132 C28.3265773,37.8978853 28.8326272,36.8365843 29.7384847,36.2142824 C30.5306439,35.6704063 31.4919525,35.652308 32.1937124,36.3534998 C32.8679797,37.0249919 33.153623,38.0069389 33.3120549,38.917421 C33.6717884,40.9625251 33.4252871,43.0939441 32.7179354,45.0429882 C31.9318339,47.2054991 30.5278481,49.1731056 28.6741954,50.5559988 C28.4938627,50.6896475 28.4015994,50.9147157 28.5246171,51.1235419 C28.6280638,51.300348 28.9132411,51.4075455 29.0945058,51.2725045 C32.7547475,48.5470912 34.7938587,43.8364371 34.2071949,39.3100142 C34.067402,38.2450008 33.8199688,37.1396143 33.1820476,36.2504789 C32.5296811,35.3418531 31.5115235,34.7933364 30.3759399,35.0323263 C29.2329007,35.2731725 28.3191216,36.2527992 27.7981604,37.2477398 C27.1830721,38.4236631 26.912806,39.7536537 26.8298622,41.0683304 C26.7324732,42.56631 26.8764598,44.0675381 27.0325618,45.5562365 C27.2059049,47.2305583 27.3794033,48.9045706 27.553057,50.5782736 C27.5763558,50.8010215 27.728264,50.9931415 27.9724355,50.9931415 C28.1797948,50.9931415 28.4123168,50.8024137 28.389018,50.5782736 L28.3885521,50.5740971 Z" id="Path" fill="#FFFFFF"></path>
                            <path d="M19.4665089,45.783161 C17.9814432,45.1409045 16.4437223,44.4837982 15.4339522,43.1681934 C14.9971678,42.5886083 14.6411907,41.9527971 14.3757207,41.2780847 C14.2359278,40.9254005 14.1110463,40.5648273 14.0029398,40.2000776 C13.8985612,39.8441451 13.7829991,39.468258 13.825403,39.0928349 C13.9116085,38.3229625 14.7718003,38.1999871 15.3882866,38.3767933 C16.0714075,38.5726258 16.722376,39.0018796 17.2820132,39.4302052 C18.4003557,40.2854643 19.2908359,41.4196224 19.9054583,42.6786121 C20.5927561,44.0850726 20.8926596,45.6480814 20.7745036,47.2078194 C20.7330317,47.7405581 21.5666629,47.7382378 21.6081347,47.2078194 C21.8527722,44.0666099 20.4031207,40.841406 17.926924,38.8872572 C17.2684999,38.367048 16.5341217,37.8816432 15.7317109,37.6143458 C14.9293002,37.3470483 13.9288496,37.4231538 13.3622228,38.1169207 C12.7564539,38.8594137 13.0146047,39.8469294 13.2755512,40.673881 C13.5262463,41.4678844 13.8533615,42.2479662 14.2871852,42.9612235 C14.7704024,43.7552269 15.3892185,44.4605953 16.1473616,45.0030792 C17.032716,45.6374467 18.0485438,46.0704129 19.0434026,46.4987386 C19.24983,46.5878378 19.4907396,46.5590661 19.6137573,46.3497759 C19.716738,46.174362 19.6715383,45.871332 19.464179,45.7817688 L19.4665089,45.783161 Z" id="Path" fill="#FFFFFF"></path>
                            <path d="M13.7410613,45.3320965 C11.8669057,44.8856725 9.9060785,44.6392577 7.98019954,44.825809 C6.33670205,44.985445 4.48304937,45.4369736 3.3935974,46.7804219 C2.88568352,47.4064363 2.62287303,48.1577464 2.76918951,48.9614951 C2.91271013,49.7476095 3.49518017,50.4028596 4.17457324,50.7931325 C5.9643872,51.8196291 8.08877196,51.0052071 9.86414066,50.3722318 C12.0602157,49.5881999 14.2035917,48.6648437 16.2810967,47.6078375 C16.7591881,47.3646711 16.3379458,46.6486294 15.8617182,46.8913318 C14.1799803,47.7475283 12.4533952,48.5133934 10.6893842,49.1856351 C9.80402975,49.5216132 8.91354954,49.8487742 8.00722615,50.1197842 C7.16054769,50.3731599 6.22673171,50.5838423 5.34696895,50.3726958 C4.71230958,50.2204848 4.09349341,49.8524867 3.76265042,49.2761265 C3.44485476,48.7192567 3.518013,48.0760722 3.85584563,47.547974 C4.64520904,46.3075466 6.3124713,45.8578743 7.68197487,45.687565 C9.63068666,45.4448626 11.6190064,45.6782838 13.5201887,46.1307405 C14.0411499,46.2551081 14.2657503,45.4550719 13.7415273,45.3307043 L13.7410613,45.3320965 Z" id="Path" fill="#FFFFFF"></path>
                            <path d="M26.7073105,51.0038149 C25.0917716,49.9295203 23.0330895,50.1304575 21.2302282,50.5207304 C19.3024853,50.9383827 17.2931966,51.5518675 15.8645141,52.9802384 C15.2307867,53.6136778 14.7247367,54.397472 14.4889528,55.2657247 C14.3608094,55.7385999 14.31095,56.2690184 14.6506465,56.6685724 C14.9423475,57.0129036 15.4134493,57.1224213 15.8393514,57.1948143 C17.9362436,57.5526032 20.0256801,56.8852876 21.8439186,55.8727127 C23.9482664,54.700966 25.7525256,53.0558799 27.9076648,51.9695198 C28.3866882,51.7282096 27.9649799,51.0121679 27.4882864,51.2530141 C24.1388506,52.9407935 21.3555757,56.2453514 17.3845279,56.457426 C16.9280778,56.4863572 16.4698004,56.4628447 16.0187522,56.3873532 C15.7354387,56.3367709 15.2452319,56.2991822 15.2214672,55.9339684 C15.1986343,55.5780358 15.3766372,55.16456 15.5294773,54.8503927 C15.7059493,54.4871337 15.9298472,54.1486903 16.1953571,53.8438506 C17.3742765,52.4980821 19.1025816,51.8850613 20.7982684,51.4725136 C22.5689773,51.0414036 24.6658695,50.6423136 26.2874661,51.7207847 C26.7348031,52.0182459 27.1527836,51.2994199 26.7068445,51.0038149 L26.7073105,51.0038149 Z" id="Path" fill="#FFFFFF"></path>
                            <path d="M35.5953375,52.0609393 C35.5487399,51.5263443 35.6419351,51.0302662 35.7318685,50.5504301 C35.7923549,50.214953 35.8788186,49.8846404 35.9904852,49.5624503 C36.0296599,49.4402441 36.0810179,49.3222494 36.1437913,49.2102302 C36.1726818,49.1559354 36.2039022,49.1021047 36.2369865,49.0505942 C36.2560915,49.0213586 36.2756625,48.992587 36.2966314,48.9647435 C36.2355885,49.0445615 36.32459,48.9382922 36.3376373,48.9243704 C36.3506846,48.9104487 36.3679257,48.8960629 36.3842349,48.8816771 C36.4573931,48.809284 36.3157364,48.9364359 36.3930884,48.8742521 C36.4163883,48.8581303 36.4410178,48.8440034 36.4667127,48.8320229 C36.3735175,48.8816771 36.4312985,48.8515133 36.4564612,48.8389837 C36.4778259,48.8312718 36.5000397,48.8261307 36.5226298,48.8236698 C36.3735175,48.8529055 36.5161061,48.8185652 36.5226298,48.8320229 L36.5510543,48.8320229 C36.4886135,48.8227417 36.4811579,48.8227417 36.5277555,48.8320229 C36.5496564,48.8320229 36.6414537,48.8710037 36.5501224,48.8320229 C36.6190849,48.8612764 36.6839336,48.8993391 36.7430365,48.945253 C36.6852554,48.8988472 36.8660541,49.0631238 36.7621415,48.9577826 C36.7814925,48.9799553 36.796365,49.0056387 36.8059432,49.0334241 C36.7775187,48.9355078 36.7924299,49.0060446 36.7998855,49.0334241 C36.8069697,49.0577862 36.8124181,49.0825907 36.8161947,49.1076734 C36.7961577,48.993051 36.8115349,49.1327325 36.811069,49.1587198 C36.8059432,49.3475914 36.6852554,49.663151 36.5659656,49.8975003 C36.3773066,50.2557217 36.1618852,50.5993186 35.9215207,50.9253891 C35.5004088,51.5071108 35.0423504,52.0614006 34.5501532,52.5848609 C34.18576,52.9760619 34.7738217,53.5644876 35.1396129,53.1714304 C35.6533595,52.6212073 36.1334052,52.040705 36.577149,51.4330687 C37.0459209,50.78942 37.6204693,49.9861354 37.6419042,49.1591838 C37.6605433,48.4347891 36.8800334,47.7971732 36.168954,48.0616864 C35.4648642,48.3229511 35.1904043,49.2250801 35.0254488,49.879402 C34.8544356,50.56528 34.6992656,51.3490741 34.7612404,52.0604752 C34.807838,52.5885734 35.6410031,52.593214 35.5944055,52.0604752 L35.5953375,52.0609393 Z" id="Path" fill="#FFFFFF"></path>
                            <path d="M28.915105,56.3878173 C27.8293808,56.1952331 26.7650916,55.8773533 25.6532727,55.8485817 C24.5316684,55.8170258 23.354147,56.1789911 23.0549903,57.3841501 C22.9987702,57.6045691 23.1273146,57.8298759 23.3462254,57.894614 C24.9431252,58.3730579 26.7455206,57.9572619 28.1802608,57.1864613 C28.6522945,56.9326215 28.2319841,56.2156517 27.7608823,56.4694915 C26.5176583,57.1377352 24.9533767,57.5089817 23.567098,57.0945778 L23.8578671,57.6050417 C23.955256,57.2133767 24.1807884,56.9553604 24.5023119,56.8309928 C24.9407954,56.6592913 25.3876664,56.6583632 25.8671557,56.6885269 C26.8247365,56.7483904 27.748301,57.0207926 28.6909705,57.1883175 C28.9123091,57.2272984 29.1397054,57.128454 29.2035442,56.8982812 C29.2589953,56.6978081 29.1350457,56.4272622 28.9123091,56.3878173 L28.915105,56.3878173 Z" id="Path" fill="#FFFFFF"></path>
                            <path d="M147.010208,52.234033 C142.370485,52.8229227 137.992174,54.693541 133.959151,56.9850601 C132.114352,58.0338314 130.301239,59.1772707 128.74022,60.6209555 C127.155901,62.0845948 125.93784,63.8350221 125.208587,65.8648123 C124.350725,68.2537836 124.075334,70.795894 123.814853,73.3045922 C123.791554,73.5273401 123.639646,73.7194602 123.395474,73.7194602 C123.188115,73.7194602 122.955593,73.5287323 122.978892,73.3045922 C123.218404,70.9982233 123.463507,68.6672594 124.139638,66.4397803 C124.803654,64.2517463 125.923394,62.2846039 127.52309,60.6413741 C129.055685,59.0672889 130.896757,57.8157241 132.783494,56.7029127 C134.84171,55.4894007 136.977273,54.4002563 139.191596,53.5009117 C141.702275,52.4799838 144.317333,51.7449157 147.00881,51.4033689 C147.232479,51.3745973 147.425393,51.6140513 147.425393,51.8182369 C147.425393,52.0660439 147.232945,52.2047973 147.00881,52.2331049 L147.010208,52.234033 Z" id="Path" fill="#FFFFFF"></path>
                            <path d="M129.339931,58.229664 L129.775618,54.0290098 C129.907956,52.7500656 130.055204,51.4701933 130.088288,50.1842882 C130.118111,48.9693841 130.041691,47.7461268 129.70013,46.5743801 C129.401906,45.5534522 128.895856,44.4921513 127.989998,43.8698493 C127.197839,43.3259732 126.236996,43.3078749 125.53477,44.0090667 C124.860503,44.6810229 124.57486,45.6625058 124.416428,46.5729879 C124.056694,48.6180921 124.303196,50.749511 125.010547,52.6985552 C125.796649,54.861066 127.200635,56.8286725 129.054287,58.2115657 C129.23462,58.3456785 129.326883,58.5702826 129.203866,58.7791088 C129.100419,58.9559149 128.815242,59.0631124 128.633977,58.9280715 C124.973735,56.2026581 122.934624,51.4924681 123.521288,46.9655811 C123.661081,45.9005677 123.908514,44.7956453 124.546435,43.9060458 C125.198802,42.99742 126.216959,42.4489033 127.352543,42.6883573 C128.495582,42.9292035 129.409361,43.9083661 129.930322,44.9033068 C130.545411,46.07923 130.813347,47.4092206 130.898621,48.7243614 C130.99601,50.222341 130.852023,51.723105 130.695921,53.2122675 C130.522578,54.8862799 130.34908,56.5601375 130.175426,58.2338405 C130.152127,58.4565884 130.000219,58.6487085 129.758377,58.6487085 C129.551018,58.6487085 129.318496,58.4579806 129.341795,58.2338405 L129.339931,58.229664 Z" id="Path" fill="#FFFFFF"></path>
                            <path d="M138.261974,53.4387279 C139.747506,52.7969355 141.284761,52.1393651 142.294531,50.8237603 C142.731277,50.2440714 143.087396,49.6082872 143.353228,48.9336516 C143.493021,48.5809674 143.617437,48.2203942 143.726009,47.8556446 C143.830388,47.499712 143.94595,47.1238249 143.903546,46.7484019 C143.81734,45.9789935 142.957149,45.855554 142.340662,46.0323602 C141.657541,46.2286568 141.007039,46.6574465 140.446936,47.0857721 C139.328593,47.9410312 138.438113,49.0751893 137.823491,50.334179 C137.136133,51.7407852 136.836228,53.3039593 136.954445,54.8638504 C136.995917,55.3965891 136.162286,55.3938048 136.120814,54.8638504 C135.876177,51.7221769 137.325828,48.4969729 139.802025,46.5428241 C140.460449,46.023079 141.194827,45.5376742 141.997238,45.2699127 C142.799649,45.0021511 143.800099,45.0787207 144.366726,45.7724876 C144.972495,46.5149806 144.714344,47.5029604 144.453398,48.3294479 C144.202703,49.1239154 143.875587,49.9035331 143.441764,50.6167904 C142.958546,51.4112579 142.33973,52.1161622 141.581587,52.6586462 C140.696233,53.2930136 139.680405,53.7259799 138.685546,54.1543055 C138.479119,54.2434047 138.238209,54.2146331 138.115192,54.0053428 C138.012211,53.8299289 138.057411,53.527363 138.26477,53.4373357 L138.261974,53.4387279 Z" id="Path" fill="#FFFFFF"></path>
                            <path d="M143.987888,52.9876634 C145.862043,52.5412395 147.82287,52.2948246 149.748749,52.481376 C151.392247,52.641012 153.245899,53.0930046 154.335817,54.4359888 C154.843265,55.0620032 155.106076,55.8137774 154.959759,56.617062 C154.816239,57.4031764 154.233769,58.0588906 153.554376,58.4486994 C151.764562,59.475196 149.640177,58.660774 147.864808,58.0277987 C145.668689,57.2438793 143.525305,56.32052 141.447852,55.2634044 C140.969761,55.020702 141.391003,54.3041963 141.867231,54.5468987 C143.548917,55.4032028 145.275508,56.1690705 147.039565,56.8412021 C147.924919,57.1776442 148.815399,57.5043411 149.721723,57.7753511 C150.568867,58.0287268 151.502217,58.2394092 152.38198,58.0282627 C153.016639,57.8765157 153.635455,57.5080536 153.966298,56.9316934 C154.284094,56.3748236 154.210936,55.7321031 153.873103,55.204005 C153.08374,53.9631136 151.416478,53.5134412 150.046974,53.3431319 C148.098262,53.1004295 146.109942,53.3338507 144.209226,53.7867715 C143.687799,53.910675 143.463665,53.1106388 143.987422,52.9862712 L143.987888,52.9876634 Z" id="Path" fill="#FFFFFF"></path>
                            <path d="M131.021172,58.6598459 C132.636711,57.5855513 134.695393,57.7860244 136.498255,58.1767613 C138.425998,58.5944137 140.435286,59.2074344 141.863969,60.6362694 C142.497696,61.2697088 143.003746,62.0535029 143.23953,62.9217557 C143.367673,63.3946309 143.417533,63.9250494 143.077836,64.3250675 C142.786135,64.6689345 142.315034,64.7784523 141.889131,64.8513094 C139.792239,65.2086341 137.702803,64.5413186 135.884564,63.5292078 C133.780216,62.3569969 131.975957,60.7119109 129.820818,59.6260149 C129.341795,59.3847046 129.763503,58.6681989 130.240197,58.9090451 C133.589632,60.5968245 136.372907,63.9013824 140.343955,64.113457 C140.800404,64.1426201 141.258708,64.1191063 141.709731,64.0433842 C141.993044,63.9928018 142.483251,63.9552131 142.507016,63.5899994 C142.529849,63.2345309 142.351846,62.820591 142.199006,62.5068877 C142.022926,62.1434067 141.798996,61.8049136 141.533126,61.5003456 C140.354206,60.1545771 138.625901,59.5415563 136.930214,59.1285446 C135.159506,58.6978986 133.062613,58.2983446 131.441017,59.3768157 C130.99368,59.6742769 130.575699,58.9554509 131.021638,58.6603099 L131.021172,58.6598459 Z" id="Path" fill="#FFFFFF"></path>
                            <path d="M122.135009,59.7165062 C122.181607,59.1819112 122.088412,58.6858331 121.998478,58.2064611 C121.93805,57.8708195 121.851585,57.5403481 121.739862,57.2180173 C121.700687,57.095811 121.649329,56.9778163 121.586556,56.8657971 C121.557665,56.8115023 121.526445,56.7581357 121.49336,56.7066252 C121.473789,56.6773895 121.454218,56.6481539 121.433249,56.6207744 C121.494292,56.7005924 121.405291,56.5938591 121.392243,56.5799373 C121.379196,56.5660156 121.361955,56.5520938 121.345646,56.537244 C121.272488,56.4648509 121.41461,56.5920028 121.336792,56.5298191 C121.313384,56.5138679 121.288769,56.4997491 121.263168,56.4875898 C121.356363,56.537708 121.298582,56.5070802 121.27342,56.4945506 C121.252055,56.4868387 121.229841,56.4816976 121.207251,56.4792367 C121.356363,56.5084724 121.213775,56.4741321 121.207251,56.4880538 L121.178826,56.4880538 C121.241267,56.4787727 121.249189,56.4792367 121.202125,56.4880538 C121.180224,56.4880538 121.088427,56.5270347 121.180224,56.4880538 C121.111047,56.5170786 121.046149,56.5553263 120.98731,56.6017481 C121.044625,56.5553423 120.863827,56.7191548 120.967739,56.6138136 C120.948388,56.6359862 120.933516,56.6616697 120.923938,56.689455 C120.952362,56.5915388 120.937917,56.6625397 120.929995,56.689455 C120.922959,56.7138293 120.917511,56.7386307 120.913686,56.7637043 C120.933723,56.649082 120.918346,56.7892275 120.918812,56.8152148 C120.923938,57.0036224 121.044625,57.319646 121.163915,57.5535313 C121.351894,57.912084 121.56653,58.2561368 121.80603,58.5828122 C122.227146,59.164384 122.685205,59.7185192 123.177398,60.24182 C123.541791,60.633021 122.953729,61.2214467 122.587938,60.8288535 C122.074434,60.2782564 121.594401,59.6976145 121.150402,59.0900277 C120.68163,58.4463791 120.107082,57.6430945 120.085647,56.8161429 C120.067008,56.0912841 120.847518,55.4536683 121.559063,55.7181814 C122.262687,55.9794461 122.537613,56.8815751 122.702102,57.5358971 C122.873115,58.221775 123.028285,59.0055692 122.966311,59.7169703 C122.919713,60.2450684 122.086548,60.2501731 122.133145,59.7169703 L122.135009,59.7165062 Z" id="Path" fill="#FFFFFF"></path>
                            <path d="M128.813378,64.0433842 C129.899102,63.8508001 130.963391,63.5329202 132.07521,63.5041486 C133.196814,63.4725927 134.374336,63.834558 134.673493,65.040181 C134.729713,65.2606001 134.601168,65.4859069 134.382258,65.550645 C132.785358,66.0286248 130.982962,65.6128288 129.548222,64.8420282 C129.076188,64.5881884 129.496499,63.8712186 129.967601,64.1250584 C131.210825,64.7933021 132.775572,65.1645486 134.161385,64.7501447 L133.87015,65.2606086 C133.772761,64.8689436 133.547228,64.6109273 133.225705,64.4865597 C132.787222,64.3148582 132.340351,64.3139301 131.860861,64.3440938 C130.90328,64.4039573 129.979716,64.6768235 129.037046,64.8438844 C128.816174,64.8833294 128.588311,64.784021 128.524473,64.5538481 C128.469488,64.353375 128.592971,64.0828291 128.815708,64.0433842 L128.813378,64.0433842 Z" id="Path" fill="#FFFFFF"></path>
                            <path d="M102.400862,91.7731775 C102.408014,91.9162775 102.308678,92.0431014 102.16747,92.0706388 L102.081731,92.0854887 L98.5151499,92.6961891 L97.3092039,92.902695 L93.7044133,93.5189642 L92.48542,93.7282544 L88.8419533,94.3510204 L87.6094467,94.5626309 L83.9254402,95.1928219 L82.6794202,95.4058245 L78.9548738,96.0434404 L77.6967385,96.2587634 L59.8400707,99.3145861 L58.0339476,99.6236489 L57.8042214,99.6575251 L55.4817968,100 L37.0160984,100 L36.9914017,99.6575251 L36.9671709,99.3145861 L31.6191639,24.626751 L30.4538402,8.34248725 C30.4502943,8.26701708 30.4766806,8.19309146 30.5275601,8.13702358 C30.5784395,8.08095569 30.64963,8.04735415 30.7254219,8.04363382 L53.1626341,6.45469879 L58.7632001,6.05746504 L72.3543232,5.09500848 L77.7279589,4.71401676 L77.7279589,4.71401676 L96.3418377,3.39522909 C96.4096943,3.39183821 96.4762606,3.41519385 96.5267468,3.46050542 C96.577233,3.50581699 96.6074578,3.56933168 96.6107058,3.63693785 L101.357138,75.8703696 L102.140909,87.7943432 L102.1698,88.2361265 L102.269985,89.7619496 L102.400862,91.7731775 Z" id="Path" fill="#8DC63F"></path>
                            <path d="M36.2011063,39.5494681 L34.3180972,12.7510395 L52.4482928,11.158392 L79.1426621,9.13509853 L93.5082374,8.38239625 L95.0245234,30.9866676 C95.0245234,30.9866676 97.7444256,81.2970653 107.848184,88.9521682 L45.6939702,97.9757785 C45.6939702,97.9757785 38.3110458,73.3055203 36.2011063,39.5494681 Z" id="Path" fill="#FFFFFF"></path>
                            <g id="Group" opacity="0.3" transform="translate(74.172509, 19.224467)" fill="#94AC74">
                                <path d="M0.410111649,2.62768004 L13.7519376,0.697662291 C13.9507097,0.671999459 14.0962194,0.498389441 14.0860424,0.299036361 L14.0860424,0.299036361 C14.0759624,0.206189899 14.0274294,0.121746135 13.9521461,0.0660666223 C13.8768627,0.0103871099 13.7816611,-0.0114750663 13.6894968,0.00575162472 L0.345806956,1.92556009 C0.137981643,1.95572387 -0.0167224013,2.1371706 0.0014506642,2.3311469 L0.0014506642,2.3311469 C0.0191577536,2.52512319 0.202286337,2.65784382 0.410111649,2.62768004 Z" id="Path"></path>
                            </g>
                            <g id="Group" opacity="0.3" transform="translate(74.284410, 20.431290)" fill="#94AC74">
                                <path d="M0.410045209,2.64365016 L13.7467454,0.694606033 C13.945705,0.668931593 14.0912786,0.495043157 14.0808502,0.295516044 L14.0808502,0.295516044 C14.0700081,0.203685599 14.0214908,0.120417345 13.946814,0.0654754359 C13.8721373,0.0105335268 13.7779596,-0.011183243 13.6866345,0.00547971461 L0.345740516,1.94199428 C0.137915203,1.97215805 -0.0163228656,2.15406884 0.0013842238,2.34758108 L0.0013842238,2.34758108 C0.0195572893,2.54155738 0.202219896,2.674278 0.410045209,2.64365016 Z" id="Path"></path>
                            </g>
                            <g id="Group" opacity="0.3" transform="translate(67.302615, 20.021338)" fill="#94AC74">
                                <path d="M5.14630119,3.90886174 L5.01862376,2.52411229 L4.92170074,1.46513164 L4.92170074,1.46513164 L4.84761055,0.664167316 L4.84761055,0.664167316 L4.8252437,0.41543216 C4.80101295,0.149062796 4.54565808,-0.0351682806 4.26048074,0.00566883457 L0.482347027,0.543048145 C0.192975908,0.584349318 -0.0227709978,0.835404765 0.00192573221,1.10455848 L0.0895292273,2.05402141 L0.326711031,4.61469415 C0.351873737,4.88291974 0.606296653,5.0662227 0.897065701,5.02352936 L4.67147161,4.46665961 C4.9575809,4.42628655 5.17053194,4.17430299 5.14630119,3.90886174 Z M4.63372755,4.08706006 L0.859321642,4.64114546 C0.831695466,4.64650396 0.803075141,4.64020766 0.780286328,4.62375817 C0.757497516,4.60730868 0.742583029,4.58218055 0.739099824,4.55436659 L0.521023038,2.17885304 L0.415712454,1.04701527 C0.41312554,0.987127773 0.457489424,0.935447828 0.51729523,0.928680448 L4.29449699,0.389908963 C4.32199909,0.384548308 4.3505017,0.39079453 4.37320379,0.40715721 C4.39590588,0.42351989 4.41077124,0.448531423 4.41425284,0.476223775 L4.46318032,1.00339381 L4.46318032,1.00339381 L4.54006637,1.83405785 L4.54006637,1.83405785 L4.5801403,2.26841626 L4.73670825,3.96965335 C4.73856895,4.02911087 4.69444801,4.08010469 4.63512548,4.08706006 L4.63372755,4.08706006 Z" id="Shape"></path>
                            </g>
                            <path d="M70.0971353,23.716733 C70.0859518,23.716733 70.0747684,23.7195173 70.063585,23.7204454 C69.9544455,23.7288066 69.8481591,23.6831701 69.7793396,23.5983982 C69.3697467,23.0744765 68.8115074,22.6396541 68.8059157,22.6354775 C68.7370193,22.5804657 68.694828,22.4988998 68.6898509,22.4110963 C68.6848737,22.3232928 68.7175792,22.2375162 68.779821,22.1751319 C68.9062862,22.0327778 69.1202874,22.0085413 69.2756195,22.1189809 C69.5574394,22.3441312 69.8222099,22.5896645 70.0677788,22.8535849 C70.6292799,22.1537852 71.9354107,20.6400276 73.2997886,19.8669068 C73.4689379,19.7708467 73.679559,19.8167885 73.7704244,19.9694636 C73.8612897,20.1221387 73.7983829,20.3230759 73.6306316,20.4191359 C71.9997154,21.3472522 70.3687993,23.5441034 70.3506262,23.5663782 C70.2896085,23.6481174 70.1983672,23.702236 70.0971353,23.716733 L70.0971353,23.716733 Z" id="Path" fill="#B5D091"></path>
                            <g id="Group" opacity="0.3" transform="translate(74.848703, 26.471065)" fill="#94AC74">
                                <path d="M0.407719048,2.73269118 L13.7281101,0.696868181 C13.9268198,0.669462662 14.0716117,0.495460842 14.0617489,0.29592196 L14.0617489,0.29592196 C14.0517674,0.203459963 14.0032286,0.119431373 13.9279864,0.0643573057 C13.8527442,0.00928323837 13.7577254,-0.0117661668 13.6661353,0.00634968902 L0.345278259,2.03196341 C0.137452946,2.06351936 -0.0163191465,2.24589421 0.00138794294,2.43940645 L0.00138794294,2.43940645 C0.0172311282,2.63291869 0.199893735,2.76424714 0.407719048,2.73269118 Z" id="Path"></path>
                            </g>
                            <g id="Group" opacity="0.3" transform="translate(74.958677, 27.675104)" fill="#94AC74">
                                <path d="M0.4095793,2.74912468 L13.7248446,0.697059643 C13.9233955,0.669024519 14.0679232,0.495139227 14.0584834,0.295649364 L14.0584834,0.295649364 C14.0485342,0.203111276 13.9999116,0.119024791 13.9245376,0.064007478 C13.8491637,0.00899016486 13.7540085,-0.011870231 13.6624038,0.00654115102 L0.345274607,2.04839691 C0.13791527,2.08041692 -0.0163227984,2.26279176 0.001384291,2.456304 L0.001384291,2.456304 C0.0190913804,2.6502803 0.202219963,2.78114469 0.4095793,2.74912468 Z" id="Path"></path>
                            </g>
                            <g id="Group" opacity="0.3" transform="translate(67.987992, 27.397914)" fill="#94AC74">
                                <path d="M5.13798737,3.89781643 L4.91059107,1.4290272 L4.83696685,0.628990991 L4.81692988,0.41134773 C4.79269913,0.144978365 4.54014012,-0.0364683621 4.25309888,0.00622498558 L0.481488827,0.573768074 C0.192117708,0.617389538 -0.0231632219,0.870301217 0.00199948413,1.13806276 L0.328182711,4.64262973 C0.351947489,4.90992721 0.607768333,5.09090988 0.896207501,5.0463603 L4.66455572,4.46071894 C4.9488011,4.41756154 5.16221813,4.16464986 5.13798737,3.89781643 Z M4.62820959,4.08019128 L0.859395394,4.6639764 C0.831934275,4.66977801 0.803288766,4.66383945 0.780433482,4.64760665 C0.757578198,4.63137384 0.742610083,4.60633613 0.739173576,4.57858971 L0.41532023,1.07587897 C0.412692337,1.01579937 0.456954393,0.963833641 0.516903006,0.956616029 L4.28851306,0.387680766 C4.31572844,0.382022003 4.34407938,0.387990407 4.36666702,0.404133643 C4.38925466,0.420276879 4.40400798,0.445114798 4.40733695,0.472603403 L4.45393455,0.969609656 L4.45393455,0.969609656 L4.53035462,1.79888153 L4.72932639,3.96000022 C4.73428286,4.02148399 4.68968502,4.07592731 4.62820959,4.08343969 L4.62820959,4.08019128 Z" id="Shape"></path>
                            </g>
                            <path d="M70.7765283,31.0734465 C70.7658109,31.0734465 70.7546275,31.0762308 70.743444,31.0771589 C70.634878,31.0865187 70.5286744,31.0418849 70.4596646,30.957896 C70.0505377,30.4376868 69.4932303,30.0075049 69.4876386,30.0033284 C69.344118,29.8928826 69.3324686,29.6873048 69.4620099,29.5439109 C69.5872877,29.4011666 69.8004362,29.3753579 69.9564105,29.4840474 C70.2383528,29.7063702 70.5031491,29.9494454 70.7485698,30.2112265 C71.307741,29.5077143 72.6124739,27.9837475 73.9759198,27.2013455 C74.1446031,27.1043573 74.3547583,27.1484428 74.4456237,27.3001898 C74.536489,27.4519368 74.4735822,27.6533381 74.3058308,27.7503262 C72.6749147,28.6891158 71.0477264,30.8984966 71.0314172,30.9207713 C70.9702161,31.0033879 70.8784947,31.0583278 70.7765283,31.0734465 L70.7765283,31.0734465 Z" id="Path" fill="#B5D091"></path>
                            <g id="Group" opacity="0.3" transform="translate(75.520174, 33.706711)" fill="#94AC74">
                                <path d="M0.408651068,2.83566028 L13.7062093,0.694496081 C13.9048585,0.665372981 14.0489509,0.490966159 14.0393821,0.291229569 L14.0393821,0.291229569 C14.022141,0.100965737 13.8455361,-0.0271143055 13.6442344,0.00490570522 L0.344812351,2.13678874 C0.137453014,2.16973687 -0.0163190788,2.35350388 0.00138801067,2.54655206 L0.00138801067,2.54655206 C0.0190951001,2.7400643 0.201291731,2.86907246 0.408651068,2.83566028 Z" id="Path"></path>
                            </g>
                            <g id="Group" opacity="0.3" transform="translate(75.633406, 34.908013)" fill="#94AC74">
                                <path d="M0.408651136,2.85297473 L13.7024815,0.694176323 C13.9012019,0.664835937 14.0452492,0.490283086 14.0356544,0.290445753 L14.0356544,0.290445753 C14.0184133,0.100181921 13.8418084,-0.0274340638 13.6405067,0.00505000509 L0.344346442,2.15363913 C0.137453081,2.18705132 -0.016319011,2.37081833 0.00138807842,2.56433057 L0.00138807842,2.56433057 C0.0176972397,2.75737875 0.199893871,2.88453068 0.408651136,2.85297473 Z" id="Path"></path>
                            </g>
                            <g id="Group" opacity="0.3" transform="translate(68.672111, 34.763672)" fill="#94AC74">
                                <path d="M5.12953353,3.88645186 L4.91844639,1.58611573 L4.84482217,0.787471693 L4.84482217,0.787471693 L4.80987397,0.406944029 C4.78517724,0.141038722 4.53261823,-0.0380877146 4.24650894,0.00692592367 L0.480956577,0.603704674 C0.192051433,0.650110487 -0.0227635202,0.90441434 0.0019332098,1.17171182 L0.32532058,4.66978198 C0.350483286,4.93707946 0.604906203,5.1162059 0.893811346,5.06887197 L4.6556359,4.45306683 C4.94174519,4.40619696 5.15423026,4.15235717 5.12953353,3.88645186 Z M4.62022172,4.07207511 L0.858397167,4.68602401 C0.831007374,4.69182714 0.802428876,4.68594932 0.779588361,4.66981517 C0.756747846,4.65368102 0.741730214,4.62876328 0.73817535,4.60110138 L0.415253955,1.10488745 C0.412532643,1.04492629 0.456185913,0.992798225 0.51590478,0.984696396 L4.28099117,0.386061413 C4.3082152,0.379955485 4.33676242,0.385601317 4.35957785,0.401603637 C4.38239328,0.417605957 4.39734829,0.442471778 4.40074701,0.470055934 L4.46132389,1.13041065 L4.46132389,1.13041065 L4.53774396,1.95782629 L4.53774396,1.95782629 L4.72087255,3.95327623 C4.72337318,4.01290794 4.68003518,4.06469949 4.6206877,4.07300323 L4.62022172,4.07207511 Z" id="Shape"></path>
                            </g>
                            <path d="M71.4703667,38.6106786 C71.4591832,38.6106786 71.4484658,38.613927 71.4372824,38.6148551 C71.3291849,38.6252754 71.2229694,38.5814331 71.1539689,38.4979124 C70.7453079,37.9814157 70.1889325,37.5568026 70.1833408,37.552626 C70.0398202,37.4435724 70.0281708,37.2379946 70.1577122,37.0936725 C70.2872535,36.9493505 70.5081261,36.9205789 70.6516468,37.0296325 C70.9335343,37.249497 71.1983409,37.4902548 71.443806,37.7498507 C72.0029773,37.0426261 73.3077102,35.5103062 74.6655643,34.7163028 C74.8337817,34.6179224 75.0439369,34.6606158 75.1348022,34.8091144 C75.2256675,34.957613 75.1622948,35.1613345 74.9950094,35.2597148 C73.368753,36.211034 71.7420307,38.4315521 71.7261875,38.4538269 C71.6651505,38.5378016 71.5731403,38.5942159 71.4703667,38.6106786 L71.4703667,38.6106786 Z" id="Path" fill="#B5D091"></path>
                            <g id="Group" opacity="0.3" transform="translate(76.193044, 40.928273)" fill="#94AC74">
                                <path d="M0.408185159,2.93972029 L13.6843085,0.693678955 C13.8827859,0.66266533 14.026093,0.487966588 14.0170153,0.288092152 L14.0170153,0.288092152 C13.9997742,0.0982923785 13.8231693,-0.0283954901 13.6223336,0.00548075317 L0.344346442,2.24177686 C0.137453081,2.27658122 -0.016319011,2.46127636 0.00138807842,2.65432454 L0.00138807842,2.65432454 C0.0181632158,2.84690866 0.200359847,2.9749887 0.408185159,2.93972029 Z" id="Path"></path>
                            </g>
                            <g id="Group" opacity="0.3" transform="translate(47.040432, 48.958498)" fill="#94AC74">
                                <path d="M1.21547395,6.11928322 L41.7772901,1.21465288 C42.3984362,1.13947547 42.8611504,0.810458256 42.8117569,0.479120753 L42.8117569,0.479120753 C42.7618975,0.148247309 42.2185694,-0.0591866735 41.6002192,0.0150626267 L1.05238234,4.91458833 C0.427974449,4.98976574 -0.0421953737,5.32063919 0.00300430197,5.65336886 L0.00300430197,5.65336886 C0.0477380016,5.98609854 0.590600086,6.1949247 1.21547395,6.11928322 Z" id="Path"></path>
                            </g>
                            <g id="Group" opacity="0.3" transform="translate(47.213784, 52.632593)" fill="#94AC74">
                                <path d="M1.21779557,6.08293952 L41.9189386,1.2223947 C42.5419485,1.1481454 43.0065267,0.817271957 42.9566672,0.484078222 L42.9566672,0.484078222 C42.9068078,0.150884487 42.3616158,-0.0593338439 41.7386059,0.0149154563 L1.05610189,4.86989158 C0.429364118,4.94506899 -0.0422036319,5.27687055 0.00299604377,5.61238458 L0.00299604377,5.61238458 C0.0463318153,5.94697049 0.590125852,6.15811694 1.21779557,6.08293952 Z" id="Path"></path>
                            </g>
                            <g id="Group" opacity="0.3" transform="translate(47.114073, 56.321654)" fill="#94AC74">
                                <path d="M1.22337911,6.04694426 L42.0540635,1.23141308 C42.6794033,1.15762784 43.1453793,0.82582628 43.0950539,0.48892008 L43.0950539,0.48892008 C43.0451945,0.152941996 42.4981386,-0.0591325676 41.8732648,0.0146526745 L1.05935555,4.82461516 C0.430753874,4.8984004 -0.0422118041,5.23205819 0.00298787161,5.56710816 L0.00298787161,5.56710816 C0.0481875473,5.90772682 0.596641344,6.12119356 1.22337911,6.04694426 Z" id="Path"></path>
                            </g>
                            <g id="Group" opacity="0.3" transform="translate(48.427145, 60.086091)" fill="#94AC74">
                                <path d="M1.22855329,6.00935791 L42.24656,1.23652008 C42.8746957,1.1631989 43.3425356,0.830005162 43.2917443,0.494027079 L43.2917443,0.494027079 C43.2409529,0.156192762 42.6906352,-0.0586661501 42.0629654,0.0141909757 L1.06359777,4.78146011 C0.432200239,4.85478129 -0.0426293438,5.1893672 0.00303630788,5.52905775 L0.00303630788,5.52905775 C0.0477700075,5.86689207 0.597155756,6.0826791 1.22855329,6.00935791 Z" id="Path"></path>
                            </g>
                            <g id="Group" opacity="0.3" transform="translate(69.355228, 42.114421)" fill="#94AC74">
                                <path d="M5.12114976,3.87710224 L4.91006261,1.58047857 L4.83690437,0.782762655 L4.83690437,0.782762655 L4.80242215,0.402699049 C4.77772542,0.137257801 4.52563238,-0.0400124035 4.23952309,0.00778558357 L0.480028419,0.634728113 C0.191589251,0.681133925 -0.022759726,0.938686185 0.00193700403,1.20551961 L0.290376171,4.32027775 L0.325324374,4.69755701 C0.349555128,4.96439043 0.604909997,5.14073252 0.892417212,5.0910783 L4.6477181,4.44650156 C4.85114646,4.41183464 5.02096512,4.27254921 5.09412315,4.0803597 C5.11823649,4.0154614 5.12747072,3.94601407 5.12114976,3.87710224 L5.12114976,3.87710224 Z M4.61323588,4.06690202 L4.30755559,4.11934058 L0.857003034,4.71055064 C0.829907526,4.71680963 0.801417799,4.71134642 0.778593496,4.69551477 C0.755769193,4.67968312 0.740746213,4.65496455 0.737247192,4.62748423 L0.706492773,4.29939514 L0.413816842,1.13637495 C0.41225366,1.07637551 0.455838241,1.02460785 0.515442598,1.01571983 L4.2744713,0.387385131 C4.30157081,0.381276259 4.33000054,0.386871478 4.35272955,0.402787035 C4.37545856,0.418702593 4.39036457,0.443452402 4.39376116,0.470915594 L4.45433805,1.12941408 L4.45433805,1.12941408 L4.53029214,1.9559016 L4.53029214,1.9559016 L4.71295475,3.94531879 C4.71602792,4.00534499 4.67291022,4.05791666 4.61323588,4.06690202 L4.61323588,4.06690202 Z" id="Shape"></path>
                            </g>
                            <path d="M72.1488278,45.9706404 C72.1381103,45.9706404 72.1269269,45.9738888 72.1157435,45.974817 C72.0081192,45.9863086 71.9018851,45.9432578 71.832896,45.8601946 C71.425167,45.3497307 70.8697235,44.9279018 70.8641318,44.9237253 C70.7206112,44.8160638 70.7094278,44.6109501 70.8385031,44.4656999 C70.9675785,44.3204497 71.1884512,44.2898219 71.3315058,44.3974834 C71.6121956,44.6150369 71.8759174,44.8534728 72.1204032,45.1107407 C72.6795745,44.3993396 73.9796476,42.8586666 75.3356379,42.0544539 C75.5038552,41.9546814 75.7135445,41.9955185 75.8039438,42.1472655 C75.8943432,42.2990125 75.8319024,42.4990216 75.664151,42.5987941 C74.0402245,43.5621788 72.416764,45.7933702 72.4023187,45.8161091 C72.3412347,45.8985093 72.2502982,45.9539453 72.1488278,45.9706404 L72.1488278,45.9706404 Z" id="Path" fill="#B5D091"></path>
                            <g id="Group" opacity="0.56" transform="translate(73.357110, 66.691599)" fill="#B5D091">
                                <path d="M17.6427787,5.42964515 C16.838038,3.55809873 15.4806498,1.96823559 13.8161834,0.952412349 C12.4970053,0.1472715 11.023589,-0.15018976 9.43600868,0.0707019087 C8.00080248,0.269782845 6.51806673,0.90275813 5.14902913,1.90280339 C3.5977949,3.03556928 2.23667889,4.61522314 1.31917207,6.35126459 C0.333166779,8.21770638 -0.11510217,10.1774238 0.0251566175,12.015094 C0.143514531,13.5613357 0.823839546,14.9497976 1.9915755,16.0291968 C2.9917755,16.9483697 4.24404759,17.5502817 5.58891051,17.7582774 C5.71239416,17.7773038 5.83680976,17.7930818 5.96169134,17.8046832 C9.20441859,18.1230271 12.3306518,16.4477773 14.3744227,14.9938831 C16.3184748,13.6109899 17.4708335,12.246659 18.0090358,10.6971689 C18.5528299,9.11565885 18.4242205,7.24643272 17.6427787,5.42964515 Z M17.2415733,10.4651399 C16.7783931,11.8030195 15.7415964,13.0095706 13.9746153,14.2643838 C12.0510662,15.6305709 9.12240681,17.204192 6.12990869,16.9095151 C6.01760846,16.8983777 5.90670617,16.8844559 5.79626985,16.8672858 C3.15931145,16.4570584 1.06335123,14.3511626 0.872301054,11.847569 C0.623003874,8.57503114 2.51952635,4.86581453 5.57446525,2.63183871 C7.50407203,1.221102 9.51708851,0.661911962 11.3423166,0.979327721 C12.0564195,1.10418788 12.7402774,1.3627481 13.357663,1.74131116 C14.8953839,2.67778046 16.1493255,4.1446682 16.8925572,5.87142849 C17.2951605,6.80372127 17.8757667,8.64046333 17.2420393,10.4651399 L17.2415733,10.4651399 Z" id="Shape"></path>
                            </g>
                            <path d="M79.1412642,9.13509853 L79.3672626,12.4953434 C79.3777474,12.6482493 79.2633586,12.78136 79.1100438,12.7946609 L52.9990765,14.878746 C52.9227375,14.8855506 52.8468363,14.8616683 52.7882807,14.8124191 C52.7297251,14.7631699 52.6933789,14.6926445 52.6873385,14.6165531 L52.4464289,11.158392 L79.1412642,9.13509853 Z" id="Path" fill="#D3E0DB"></path>
                            <path d="M53.8979443,13.3589556 L77.9376481,11.477664 C78.0724648,11.4660842 78.1730494,11.3489775 78.1636465,11.214543 L77.6934766,4.24114153 C77.6896469,4.17667989 77.6601317,4.11640917 77.6114857,4.07371419 C77.5628398,4.03101922 77.49909,4.00943432 77.434394,4.01375305 L53.3648677,5.69828405 C53.2245401,5.70698739 53.1177909,5.82720888 53.126288,5.9669737 L53.6244164,13.1283187 C53.6295076,13.1952118 53.6613184,13.2572788 53.7127285,13.3006274 C53.7641386,13.3439761 53.8308548,13.3649864 53.8979443,13.3589556 L53.8979443,13.3589556 Z" id="Path" fill="#9AB5A9"></path>
                            <path d="M72.3519933,5.09500848 L72.3021339,4.37200592 L72.3021339,4.37200592 L72.1623411,2.3064832 C72.070161,0.946673301 70.8906151,-0.0825303347 69.5249167,0.00521895044 L60.923465,0.565337109 C59.5255369,0.658148734 58.4696352,1.84892189 58.5651603,3.22903076 L58.7096129,5.32471726 L58.7096129,5.32471726 L58.7608702,6.05792909 L58.8247089,6.98604535 L72.4139681,6.01152328 L72.3519933,5.09500848 Z M62.0161788,3.36360761 L68.839,2.89954949 C69.0054772,2.88844142 69.165259,2.96662613 69.2581573,3.10465218 C69.3510555,3.24267823 69.3629566,3.41957619 69.2893776,3.56871031 C69.2157987,3.71784442 69.067918,3.81655767 68.9014408,3.82766574 L62.0809495,4.30007691 C61.9557099,4.30850564 61.8321727,4.26749605 61.7370592,4.18591861 C61.6423409,4.1048648 61.5842558,3.98933982 61.5758315,3.86525445 C61.5671397,3.7405115 61.6087104,3.61746008 61.6913487,3.52331795 C61.773987,3.42917581 61.8908824,3.37170145 62.0161788,3.36360761 Z" id="Shape" fill="#9AB5A9"></path>
                            <path d="M59.4808032,33.2308527 L58.6644132,29.8186333 L57.7790587,26.1224103 C57.728843,25.906256 57.6114376,25.7113859 57.443556,25.5655406 C57.1019058,25.2672519 56.5997649,25.240226 56.2278245,25.5001084 C55.757526,25.8220865 55.2344898,26.0599938 54.682182,26.2031564 C52.8877082,26.6751035 51.2032049,26.1131291 51.1873617,26.1103448 C50.8089209,25.9822037 50.3902176,26.0918391 50.1240044,26.3887797 C50.111423,26.4022374 48.8686649,27.7345482 47.0797829,28.2041751 C46.5372996,28.3501591 45.9729829,28.3984064 45.4134526,28.3466409 C45.0816929,28.318027 44.7572535,28.4549856 44.5472031,28.7123187 C44.3291937,28.9764126 44.2454845,29.325791 44.3202728,29.6594614 L45.9162407,36.7655834 C46.1273279,37.704373 46.4805377,38.4593956 47.0275936,39.1424892 C48.1501299,40.5416244 50.2954835,42.3639807 54.1281365,43.0698131 C54.2687143,43.0958298 54.4133159,43.0907603 54.5517087,43.0549632 C54.6914651,43.0185479 54.8217592,42.9527196 54.933809,42.8619151 C58.0320837,40.362498 59.1443685,37.6899872 59.5315946,35.8926901 C59.7221788,35.0156202 59.7054036,34.1701063 59.4808032,33.2308527 Z" id="Path" fill="#FFFFFF"></path>
                            <path d="M54.3103331,43.1886146 C54.2439052,43.1886146 54.1776187,43.182516 54.1122933,43.1705137 C50.2502839,42.4591126 48.0858252,40.6219065 46.9497756,39.2060651 C46.3906043,38.5099779 46.0327347,37.7414977 45.8183858,36.7873942 L44.2224178,29.6817361 C44.1407845,29.3170291 44.2322113,28.935199 44.4703171,28.6464225 C44.7022671,28.3631562 45.0599171,28.212519 45.425568,28.2440841 C45.9731931,28.2949305 46.5255358,28.2477817 47.0564841,28.1048666 C48.7922448,27.6482334 50.0009867,26.3725376 50.0517781,26.3187069 C50.3458815,25.9919182 50.807573,25.8717185 51.2246398,26.0133567 C51.2409489,26.0189254 52.8858443,26.5702264 54.6570193,26.1061683 C55.197885,25.965997 55.7100565,25.7329507 56.1705094,25.417506 C56.5812416,25.1308571 57.135511,25.1609481 57.5125204,25.4903631 C57.6965695,25.6494299 57.8254152,25.8623684 57.8806415,26.0987433 L59.581454,33.2071857 C59.8093163,34.1612892 59.8265574,35.0211889 59.6355072,35.9135727 C59.2440874,37.7303603 58.122483,40.4237537 55.0018415,42.941269 C54.8789558,43.0412232 54.7359332,43.1137063 54.5824631,43.1538076 C54.493653,43.177115 54.402175,43.1888147 54.3103331,43.1886146 Z M45.3253831,28.4445572 C45.0551791,28.4468049 44.8000126,28.5687603 44.6292149,28.7772869 C44.431416,29.0169364 44.355446,29.333944 44.4232535,29.6367225 L46.0192214,36.7428446 C46.2265808,37.6653922 46.5737329,38.4074211 47.1105373,39.0779851 C48.224686,40.4669111 50.3504687,42.2688488 54.1495713,42.9686484 C54.2753158,42.9918577 54.4046455,42.9872635 54.5284099,42.9551907 C54.6540526,42.9225205 54.7711738,42.8633305 54.8718342,42.781633 C57.9472761,40.3017064 59.0493094,37.6547188 59.4332736,35.8708794 C59.6196641,35.0091234 59.601025,34.1779953 59.3806184,33.2545197 L59.3806184,33.2545197 L57.6798058,26.1446851 C57.6345022,25.9499705 57.5284776,25.7745318 57.3769214,25.6435023 C57.0709723,25.3753171 56.6203114,25.3509484 56.2870034,25.5845669 C55.8069627,25.9133661 55.2730375,26.1563025 54.7092086,26.3024649 C52.8788547,26.7836931 51.1705865,26.2096532 51.1542774,26.2045486 C50.8152377,26.0909495 50.4408428,26.189732 50.2027543,26.455604 C50.149633,26.5126832 48.9012832,27.8296802 47.1086734,28.3011632 C46.5543338,28.4502007 45.9777125,28.4993905 45.405997,28.4464134 C45.3808343,28.4459494 45.3519438,28.4445572 45.3253831,28.4445572 L45.3253831,28.4445572 Z" id="Shape" fill="#000000"></path>
                            <path d="M59.7268385,33.1668127 L58.8531335,29.5183877 L58.0241621,26.0583703 C57.9584469,25.7798459 57.803566,25.5301572 57.5828828,25.3469692 C57.4834351,25.265287 57.3720194,25.1992448 57.2525058,25.1511367 C56.867222,24.9988244 56.4309041,25.0491962 56.0908275,25.2852495 C55.6442276,25.5906784 55.1477187,25.8164774 54.623469,25.952565 C52.911939,26.4027014 51.2866146,25.8681065 51.2721693,25.8634659 C50.8015139,25.7041506 50.2808098,25.8398164 49.9487974,26.2082611 C49.936682,26.2212547 48.7274742,27.5034473 47.0247977,27.9512634 C46.5090502,28.0902643 45.9725018,28.1363118 45.4404792,28.0872324 C45.0274068,28.0518283 44.6235068,28.2222797 44.3617447,28.5424734 C44.0903623,28.8716463 43.9860593,29.3068208 44.0788972,29.7225733 L45.6730012,36.8286953 C45.8929419,37.8087861 46.261995,38.598613 46.8379413,39.3146547 C47.9865723,40.7476662 50.1789895,42.6131799 54.0871306,43.3338622 C54.2623016,43.3666689 54.4425902,43.3604886 54.6150814,43.3157639 L54.6509616,43.3060187 C54.8118065,43.2586794 54.9615236,43.17979 55.0913089,43.0739896 C58.2506265,40.5253824 59.386676,37.7902238 59.7822897,35.9502333 C59.9793976,35.0313982 59.9616905,34.1469034 59.7268385,33.1668127 Z M54.1747341,42.8043718 C50.4166373,42.1129252 48.3188132,40.3341904 47.2233035,38.9689314 C46.7014104,38.3192501 46.3649757,37.5976397 46.163208,36.7010794 L44.5653762,29.5949573 C44.5090679,29.3433722 44.5721383,29.0799773 44.7363894,28.8807718 C44.8333364,28.7631034 44.9630215,28.676572 45.1091702,28.6320367 C45.1998113,28.6055047 45.29469,28.5963708 45.3887559,28.6051213 C45.9765646,28.6596216 46.5694228,28.609176 47.1394278,28.4561586 C48.9851589,27.9712179 50.2516818,26.6245212 50.3080649,26.5665139 C50.5090042,26.3428564 50.8245422,26.2601427 51.1100097,26.3562956 C51.1272508,26.3623284 52.8872423,26.9456494 54.7446227,26.4569962 C55.3248084,26.3068877 55.8742147,26.057029 56.3680833,25.7186797 C56.5737176,25.5753058 56.8379944,25.5446092 57.0712411,25.6370055 C57.1585574,25.6720531 57.2385254,25.7230472 57.307025,25.7873603 C57.4213492,25.8951401 57.5015262,26.0338642 57.5376831,26.1864503 L58.4775568,30.1184148 L59.2366318,33.2944287 C59.4509807,34.191453 59.4696198,34.9984501 59.2883551,35.8332907 C58.9099826,37.5869663 57.8209966,40.1954371 54.7837647,42.6475202 C54.6994147,42.7161533 54.6011891,42.7658555 54.4957915,42.7932345 C54.3909619,42.8208554 54.2812395,42.8246616 54.1747341,42.8043718 L54.1747341,42.8043718 Z" id="Shape" fill="#B5D091"></path>
                            <path d="M53.0372865,37.9382583 C52.6367995,38.0427335 52.2110163,37.983947 51.8541734,37.7749099 L47.9460324,35.50845 C47.1622607,35.053673 46.8845389,34.0146469 47.3239543,33.1881593 C47.7633697,32.3616718 48.7535688,32.0581778 49.5378065,32.5097064 L52.134691,34.0053657 L58.1681487,24.4160686 C58.6690729,23.6378431 59.6807069,23.4239123 60.4304624,23.9366965 C61.1802178,24.4494808 61.3875771,25.5005724 60.8871189,26.2815822 L54.0097785,37.2231448 C53.7881246,37.5754498 53.4406164,37.830987 53.0372865,37.9382583 L53.0372865,37.9382583 Z" id="Path" fill="#B5D091"></path>
                            <path d="M132.234108,73.9236458 L132.234108,97.2950052 C132.234108,98.1766504 131.516439,98.8913651 130.63115,98.8913651 L112.965999,98.8913651 C112.08071,98.8913651 111.363041,98.1766504 111.363041,97.2950052 L111.363041,73.9236458 C111.363041,73.0536311 112.063169,72.3441145 112.936642,72.328678 L112.936642,72.3040829 L113.492552,72.3040829 C113.917683,72.3039598 114.325352,72.1356544 114.625877,71.8361918 C114.926403,71.5367292 115.095167,71.1306399 115.095043,70.7072589 L115.095043,66.963702 L120.485454,66.963702 C121.013567,66.9686179 121.505103,67.2331773 121.798575,67.6704625 C121.814884,67.6941295 121.829795,67.7168683 121.845172,67.7428556 C122.114069,67.2930611 122.587314,67.0031385 123.111695,66.9669504 C123.148041,66.964166 123.184387,66.9632379 123.220733,66.9632379 L128.594835,66.9632379 L128.594835,70.7067948 C128.594835,71.5885152 129.312428,72.3033626 130.197793,72.3036188 L130.753702,72.3036188 L130.753702,72.3323904 C131.588837,72.3961633 132.233881,73.0895064 132.234108,73.9236458 Z" id="Path" fill="#F79413"></path>
                            <rect id="Rectangle" fill="#F79413" x="112.798247" y="63.1844126" width="17.9997224" height="6.75854255" rx="3.37927128"></rect>
                            <path d="M127.820849,85.4592027 C127.820849,87.8851709 126.353316,90.072219 124.102661,91.00038 C121.852005,91.9285409 119.261535,91.414996 117.53936,89.6992455 C115.817185,87.9834951 115.30252,85.4034884 116.235388,83.1624555 C117.168255,80.9214225 119.36491,79.4607769 121.800904,79.461715 C125.126005,79.4629965 127.820849,82.1477878 127.820849,85.4592027 Z" id="Path" fill="#428EC2"></path>
                            <rect id="Rectangle" fill="#FFFFFF" x="120.554885" y="81.9509232" width="2.48738009" height="7.01655887"></rect>
                            <rect id="Rectangle" fill="#FFFFFF" x="118.27533" y="84.2206315" width="7.04602367" height="2.47621416"></rect>
                        </g>
                    </g>
                </g>
            </g>
        </g>
    </g>
</svg>