<?xml version="1.0" encoding="UTF-8"?>
<svg width="25px" height="25px" viewBox="0 0 25 25" version="1.1" xmlns="http://www.w3.org/2000/svg" xmlns:xlink="http://www.w3.org/1999/xlink">
    <title>Icon / Add</title>
    <defs>
        <path d="M12.5,0 C5.60761526,0 0,5.60761526 0,12.5 C0,19.3923847 5.60761526,25 12.5,25 C19.3923847,25 25,19.3923847 25,12.5 C25,5.60761526 19.3923847,0 12.5,0 Z M12.5,1.56251701 C18.5310181,1.56251701 23.4375284,6.46898191 23.4375284,12.5 C23.4375284,18.5310181 18.5310181,23.4375284 12.5,23.4375284 C6.46898191,23.4375284 1.56251701,18.5310635 1.56251701,12.5000454 C1.56251701,6.46902727 6.46898191,1.56251701 12.5,1.56251701 Z M13.2812585,6.25002268 L11.7187415,6.25002268 L11.7187415,11.7187869 L6.24997732,11.7187869 L6.24997732,13.2813039 L11.7187415,13.2813039 L11.7187415,18.750068 L13.2812585,18.750068 L13.2812585,13.2813039 L18.7500227,13.2813039 L18.7500227,11.7187869 L13.2812585,11.7187869 L13.2812585,6.25002268 Z" id="path-1"></path>
    </defs>
    <g id="Icon-/-Add" stroke="none" stroke-width="1" fill="none" fill-rule="evenodd">
        <mask id="mask-2" fill="white">
            <use xlink:href="#path-1"></use>
        </mask>
        <g id="Shape" fill-rule="nonzero"></g>
        <g id="Group" mask="url(#mask-2)" fill="white">
            <g id="Color">
                <rect x="0" y="0" width="25" height="25"></rect>
            </g>
        </g>
    </g>
</svg>