<?xml version="1.0" encoding="utf-8"?>
<!-- Generator: Adobe Illustrator 16.0.0, SVG Export Plug-In . SVG Version: 6.00 Build 0)  -->
<!DOCTYPE svg PUBLIC "-//W3C//DTD SVG 1.1//EN" "http://www.w3.org/Graphics/SVG/1.1/DTD/svg11.dtd">
<svg version="1.1" id="Layer_1" xmlns="http://www.w3.org/2000/svg" xmlns:xlink="http://www.w3.org/1999/xlink" x="0px" y="0px"
	 width="25px" height="25px" viewBox="0 0 25 25" enable-background="new 0 0 25 25" xml:space="preserve">
<title>Icon / Arrow / Up</title>
<g id="Icon-_x2F_-Arrow-_x2F_-Up">
	<g id="Arrow" transform="translate(12.500000, 12.500000) scale(1, -1) rotate(90.000000) translate(-12.500000, -12.500000) ">
	</g>
	<defs>
		<filter id="Adobe_OpacityMaskFilter" filterUnits="userSpaceOnUse" x="0" y="0" width="25" height="25">
			<feColorMatrix  type="matrix" values="1 0 0 0 0  0 1 0 0 0  0 0 1 0 0  0 0 0 1 0"/>
		</filter>
	</defs>
	<mask maskUnits="userSpaceOnUse" x="0" y="0" width="25" height="25" id="mask-2">
		<g filter="url(#Adobe_OpacityMaskFilter)">
			<path id="path-1" fill="#FFFFFF" d="M13.738,5.539l10.749,11.314c0.684,0.722,0.684,1.889,0,2.607s-1.792,0.719-2.476,0
				L12.5,9.449L2.99,19.46c-0.684,0.72-1.792,0.72-2.476,0c-0.685-0.72-0.685-1.886,0-2.606l10.75-11.314
				C11.605,5.179,12.052,5,12.5,5C12.948,5,13.397,5.179,13.738,5.539z"/>
		</g>
	</mask>
	<g id="Group" mask="url(#mask-2)">
		<g id="Color">
			<rect fill="#428EC2" width="25" height="25"/>
		</g>
	</g>
</g>
</svg>
