<?xml version="1.0" encoding="UTF-8"?>
<svg width="40px" height="40px" viewBox="0 0 40 40" version="1.1" xmlns="http://www.w3.org/2000/svg" xmlns:xlink="http://www.w3.org/1999/xlink">
    <title>30CE94BC-E6A4-4234-B3A8-6208F9B65990</title>
    <defs>
        <circle id="path-1" cx="20" cy="20" r="20"></circle>
        <path d="M5.61439007,13.2802244 C6.01627315,13.2802244 6.12344198,13.1814867 6.12344198,12.8112202 L6.12344198,9.6516129 C8.88303915,8.98513324 11.08,7.40532959 11.08,4.29509116 C11.08,1.40701262 8.96341576,-1.77635684e-15 5.90910433,-1.77635684e-15 C2.8280007,-1.77635684e-15 0.684624253,1.33295933 0.52387102,4.02356241 C0.497078815,4.39382889 0.604247637,4.49256662 1.00613072,4.49256662 L2.42611761,4.49256662 C2.8280007,4.49256662 2.93516952,4.39382889 2.98875393,4.02356241 C3.14950716,2.69060309 4.00685774,1.90070126 5.58759787,1.90070126 C7.6773899,1.90070126 8.1596496,3.11023843 8.1596496,4.49256662 C8.1596496,6.54137447 6.44494844,7.60280505 4.301572,8.04712482 C3.89968892,8.14586255 3.8193123,8.24460028 3.8193123,8.61486676 L3.8193123,12.8112202 C3.8193123,13.1814867 3.92648112,13.2802244 4.32836421,13.2802244 L5.61439007,13.2802244 Z M4.94458493,17.6 C6.12344198,17.6 6.7396627,16.8841515 6.7396627,16.0448808 C6.7396627,15.1562412 6.01627315,14.5391304 4.91779273,14.5391304 C3.84610451,14.5391304 3.12271496,15.2302945 3.12271496,16.0695652 C3.12271496,16.9335203 3.7925201,17.6 4.94458493,17.6 Z" id="path-3"></path>
    </defs>
    <g id="Patient-Archive-&amp;-Item" stroke="none" stroke-width="1" fill="none" fill-rule="evenodd">
        <g id="Web-/-VES-/-Patient-Item-/-Patient-Details" transform="translate(-1385.000000, -185.000000)">
            <g id="Header" transform="translate(15.000000, 185.000000)">
                <g id="Icon-/-Circle-Button" transform="translate(1370.000000, 0.000000)">
                    <g id="Background">
                        <mask id="mask-2" fill="white">
                            <use xlink:href="#path-1"></use>
                        </mask>
                        <g id="Mask"></g>
                        <g id="Color" mask="url(#mask-2)" fill="#428EC2">
                            <rect x="0" y="0" width="40" height="40"></rect>
                        </g>
                    </g>
                    <g id="Icon" transform="translate(14.200000, 11.200000)">
                        <mask id="mask-4" fill="white">
                            <use xlink:href="#path-3"></use>
                        </mask>
                        <g id="?" fill-rule="nonzero"></g>
                        <g id="Color" mask="url(#mask-4)" fill="#FFFFFF">
                            <g transform="translate(-3.000000, -0.000000)">
                                <rect x="0" y="0" width="17.6" height="17.6"></rect>
                            </g>
                        </g>
                    </g>
                </g>
            </g>
        </g>
    </g>
</svg>