<?xml version="1.0" encoding="UTF-8"?>
<svg width="25px" height="25px" viewBox="0 0 25 25" version="1.1" xmlns="http://www.w3.org/2000/svg" xmlns:xlink="http://www.w3.org/1999/xlink">
    <title>Icon / Circle Button Copy</title>
    <defs>
        <circle id="path-1" cx="12.5" cy="12.5" r="12.5"></circle>
    </defs>
    <g id="Icon-/-Circle-Button-Copy" stroke="none" stroke-width="1" fill="none" fill-rule="evenodd">
        <g id="Background">
            <mask id="mask-2" fill="white">
                <use xlink:href="#path-1"></use>
            </mask>
            <g id="Mask"></g>
            <g id="Color" mask="url(#mask-2)" fill="#eb8d30">
                <rect x="0" y="0" width="25" height="25"></rect>
            </g>
        </g>
        <g id="File-Icon-Copy" transform="translate(6.000000, 5.000000)">
            <rect id="ViewBox" x="0" y="0" width="13" height="15"></rect>
            <path d="M2.6,3.28125 L6.5,3.28125 M2.5625,6.09375 L10.4375,6.09375 M2.5625,8.90625 L10.4375,8.90625 M2.5625,11.71875 L10.4375,11.71875" id="Shape" stroke="#FFFFFF" stroke-linecap="round"></path>
            <path d="M8.125,0 L2.16666667,0 C0.970049709,0 0,0.839466094 0,1.875 L0,13.125 C0,14.1605339 0.970049709,15 2.16666667,15 L10.8333333,15 C12.0299503,15 13,14.1605339 13,13.125 L13,4.21875 L8.125,0 Z M8.125,0.9375 L8.125,2.8125 C8.125,3.58915043 8.85253728,4.21875 9.75,4.21875 L11.9166667,4.21875 L11.9166667,13.125 C11.9166667,13.642767 11.4316418,14.0625 10.8333333,14.0625 L2.16666667,14.0625 C1.56835819,14.0625 1.08333333,13.642767 1.08333333,13.125 L1.08333333,1.875 C1.08333333,1.35723305 1.56835819,0.9375 2.16666667,0.9375 L8.125,0.9375 Z" id="Shape" fill="#FFFFFF" fill-rule="nonzero"></path>
        </g>
    </g>
</svg>