<?xml version="1.0" encoding="UTF-8"?>
<svg width="25px" height="25px" viewBox="0 0 25 25" version="1.1" xmlns="http://www.w3.org/2000/svg" xmlns:xlink="http://www.w3.org/1999/xlink">
    <title>Icon / Edit</title>
    <defs>
        <path d="M8.64140478,2.43495976 C8.98530986,2.43495976 9.26403344,2.71533612 9.26403344,3.06073434 C9.26403344,3.40637699 8.98530986,3.68650892 8.64140478,3.68650892 L8.64140478,3.68650892 L3.1131433,3.68650892 C2.08191458,3.68773112 1.24647338,4.52763794 1.24525732,5.56383266 L1.24525732,5.56383266 L1.24525732,21.8708827 C1.24647338,22.9073218 2.08191458,23.7472286 3.1131433,23.7482064 L3.1131433,23.7482064 L20.5834712,23.7482064 C21.6146999,23.7472286 22.450141,22.9073218 22.4513572,21.8708827 L22.4513572,21.8708827 L22.4513572,16.3146888 C22.4513572,15.9690462 22.7300807,15.6889142 23.0739858,15.6889142 C23.4178908,15.6889142 23.6966145,15.9690462 23.6966145,16.3146888 L23.6966145,16.3146888 L23.6966145,21.8711271 C23.6946688,23.5983627 22.3020235,24.9980445 20.5834712,25 L20.5834712,25 L3.1131433,25 C1.39459095,24.9980445 0.00194571456,23.5983627 0,21.8711271 L0,21.8711271 L0,5.56383266 C0.00194571456,3.83659701 1.39459095,2.4369153 3.1131433,2.43495976 L3.1131433,2.43495976 Z M19.4875474,0.824812416 C20.5817687,-0.274937472 22.355774,-0.274937472 23.4499951,0.824812416 L23.4499951,0.824812416 L24.180611,1.55911977 C25.2731297,2.65960307 25.2731297,4.44110508 24.180611,5.54158831 L24.180611,5.54158831 L13.0727698,16.7060424 C12.9966436,16.7825531 12.9022765,16.8377973 12.7986672,16.8666416 L12.7986672,16.8666416 L7.52505108,18.3350118 C7.30883356,18.3951449 7.07729353,18.3337896 6.9184746,18.1744126 C6.7598988,18.0147913 6.69885205,17.7820813 6.758926,17.5647713 L6.758926,17.5647713 L8.21967118,12.2645095 C8.24837044,12.1603768 8.30333691,12.0655327 8.37946297,11.989022 L8.37946297,11.989022 Z M9.1504524,13.576925 L8.25274833,16.8336417 L11.4928495,15.9314019 L9.1504524,13.576925 Z M18.8272205,3.25848887 L9.73611248,12.3957755 L12.6678179,15.3425382 L21.7591692,6.2052516 L18.8272205,3.25848887 Z M22.5693161,1.70969678 C21.9615235,1.09883322 20.9760191,1.09883322 20.3682265,1.70969678 L20.3682265,1.70969678 L19.7076564,2.37336007 L22.6398483,5.32036724 L23.3001751,4.65670395 C23.9069949,4.04535153 23.9069949,3.05560105 23.3001751,2.44400414 L23.3001751,2.44400414 Z" id="path-1"></path>
    </defs>
    <g id="Icon-/-Edit" stroke="none" stroke-width="1" fill="none" fill-rule="evenodd">
        <mask id="mask-2" fill="white">
            <use xlink:href="#path-1"></use>
        </mask>
        <g id="Icon" fill-rule="nonzero"></g>
        <g id="Group" mask="url(#mask-2)" fill="#428EC2">
            <g id="Color">
                <rect x="0" y="0" width="25" height="25"></rect>
            </g>
        </g>
    </g>
</svg>