<?xml version="1.0" encoding="UTF-8"?>
<svg width="25px" height="25px" viewBox="0 0 25 25" version="1.1" xmlns="http://www.w3.org/2000/svg" xmlns:xlink="http://www.w3.org/1999/xlink">
    <title>Icon / Email</title>
    <defs>
        <path d="M21.9480611,2 L3.05716244,2 C1.37071523,2 0,3.51298948 0,5.37448256 L0,19.6258029 C0,21.4870105 1.37071523,23 3.05716244,23 L21.942759,23 C23.6292062,23 25,21.4870105 25,19.6258029 L25,5.38004948 C25.0050296,3.51884189 23.6343143,2 21.9480611,2 Z M21.942759,3.54731884 C22.8584012,3.54731884 23.6032132,4.36943903 23.6032132,5.38004948 L23.6032132,19.6258029 L23.6085152,19.6258029 C23.6085152,20.6364134 22.8637033,21.4586049 21.9480611,21.4586049 L3.05716244,21.4586049 C2.14158493,21.4586049 1.39677298,20.6364134 1.39677298,19.6258029 L1.39677298,5.38004948 C1.39677298,4.36943903 2.14158493,3.54731884 3.05716244,3.54731884 L21.942759,3.54731884 Z M3.06220588,5.18021126 C2.80356816,5.49995242 2.82962591,5.9853452 3.11904152,6.27082838 L9.30591428,12.3743874 L3.14509927,18.7406623 C2.86570587,19.0319979 2.85005829,19.5173193 3.11399808,19.8312794 C3.25366245,19.9910073 3.43981694,20.0768663 3.62597144,20.0768663 C3.79673699,20.0768663 3.96743788,20.008279 4.10205881,19.8711043 L10.3558541,13.4137603 L12.0523882,15.0864776 C12.1870091,15.2177999 12.3524726,15.2805348 12.5181947,15.2805348 C12.6835935,15.2805348 12.8543591,15.212233 12.9836779,15.0809107 L14.7269608,13.3565923 L20.9446114,19.8769567 C21.0789737,20.0196983 21.2547827,20.0882857 21.4254836,20.0882857 C21.6116381,20.0882857 21.7927492,20.008279 21.9324135,19.8482657 C22.1963533,19.5402293 22.1860078,19.0489842 21.9066791,18.7579341 L15.7665551,12.3231432 L21.8806213,6.27082838 C22.1653168,5.9853452 22.1910512,5.49995242 21.9324135,5.18021126 C21.6737758,4.86625113 21.234027,4.83784555 20.9446114,5.12332873 L12.5128926,13.4764952 L10.8678274,11.8547366 C10.862784,11.8491697 10.8577406,11.8436028 10.8577406,11.8377504 C10.8213373,11.7978541 10.7852573,11.7635961 10.7438107,11.7292668 L4.05033127,5.11747633 C3.76059237,4.83199315 3.32084359,4.86039872 3.06220588,5.18021126 Z" id="path-1"></path>
    </defs>
    <g id="Icon-/-Email" stroke="none" stroke-width="1" fill="none" fill-rule="evenodd">
        <mask id="mask-2" fill="white">
            <use xlink:href="#path-1"></use>
        </mask>
        <g id="Email"></g>
        <g id="Group" mask="url(#mask-2)" fill="#428EC2">
            <g id="Color">
                <rect x="0" y="0" width="25" height="25"></rect>
            </g>
        </g>
    </g>
</svg>