<?xml version="1.0" encoding="UTF-8"?>
<svg width="70px" height="70px" viewBox="0 0 70 70" version="1.1" xmlns="http://www.w3.org/2000/svg" xmlns:xlink="http://www.w3.org/1999/xlink">
    <title>E64C8BE6-E0F3-4933-A5CB-CDB8A524722B</title>
    <g id="Queue-&amp;-Dashboard" stroke="none" stroke-width="1" fill="none" fill-rule="evenodd">
        <g id="Web-/-Provider-/-Dashboard-/-Null" transform="translate(-55.000000, -270.000000)" fill="#4C4C4C" fill-rule="nonzero">
            <g id="Table-/-Patients" transform="translate(15.000000, 180.000000)">
                <g id="Item" transform="translate(0.000000, 70.000000)">
                    <path d="M104.873047,34.5167969 L91.6974609,34.5167969 C91.1310352,34.5167969 90.6720703,34.9757617 90.6720703,35.5421875 C90.6720703,36.1086133 91.1310352,36.5675781 91.6974609,36.5675781 L104.873047,36.5675781 C106.56918,36.5675781 107.949219,37.9476172 107.949219,39.64375 L107.949219,74.4578125 C107.949219,76.1539453 106.56918,77.5339844 104.873047,77.5339844 L79.0066797,77.5339844 C79.003125,77.5339844 78.999707,77.5334375 78.9961523,77.5334375 C78.9925977,77.5334375 78.9891797,77.5339844 78.985625,77.5339844 L71.0146484,77.5339844 C71.0110937,77.5339844 71.0076758,77.5334375 71.0041211,77.5334375 C71.0005664,77.5334375 70.9971484,77.5339844 70.9935938,77.5339844 L45.1269531,77.5339844 C43.4308203,77.5339844 42.0507812,76.1539453 42.0507812,74.4578125 L42.0507812,39.64375 C42.0507812,37.9476172 43.4308203,36.5675781 45.1269531,36.5675781 L62.0616211,36.5675781 L62.0616211,37.5995312 C62.0616211,37.9424219 62.0761133,38.2820313 62.1020898,38.6183594 L45.5371094,38.6183594 C44.7455078,38.6183594 44.1015625,39.2623047 44.1015625,40.0539062 L44.1015625,65.4852344 C44.1015625,66.0516602 44.5605273,66.510625 45.1269531,66.510625 C45.6933789,66.510625 46.1523437,66.0516602 46.1523437,65.4852344 L46.1523437,40.6691406 L62.4250195,40.6691406 C63.3013867,44.315293 65.7006641,47.3723242 68.9023438,49.1085156 L68.9023438,51.4058008 C68.9023438,51.9440625 68.559043,52.4209375 68.0477148,52.5926563 L58.150918,55.9203906 C54.9467773,56.9967773 52.7940039,59.9895508 52.7940039,63.3674609 L52.7940039,73.4326953 L46.1523437,73.4326953 L46.1523437,70.2705273 C46.1523437,69.7041016 45.6933789,69.2451367 45.1269531,69.2451367 C44.5605273,69.2451367 44.1015625,69.7041016 44.1015625,70.2705273 L44.1015625,74.0479297 C44.1015625,74.8395312 44.7455078,75.4834766 45.5371094,75.4834766 L104.462891,75.4834766 C105.254492,75.4834766 105.898437,74.8395312 105.898437,74.0479297 L105.898437,40.0539062 C105.898437,39.2623047 105.254492,38.6183594 104.462891,38.6183594 L87.9076172,38.6183594 C87.9275781,38.3235938 87.9382422,38.0270508 87.9382422,37.7287305 L87.9382422,26.1975977 C87.9383789,22.7801758 85.1582031,20 81.7407812,20 L68.2593555,20 C64.8419336,20 62.0617578,22.7801758 62.0617578,26.1975977 L62.0617578,34.5167969 L45.1269531,34.5167969 C42.2998828,34.5167969 40,36.8166797 40,39.64375 L40,74.4578125 C40,77.2848828 42.2998828,79.5847656 45.1269531,79.5847656 L69.978457,79.5847656 L69.978457,83.8476562 L68.6831836,83.8476562 C66.0823828,83.8476562 63.9663867,85.9636523 63.9663867,88.5644531 C63.9663867,89.3560547 64.610332,90 65.4019336,90 L84.597793,90 C85.3893945,90 86.0333398,89.3560547 86.0333398,88.5644531 C86.0333398,85.9636523 83.9173438,83.8476562 81.316543,83.8476562 L80.0212695,83.8476562 L80.0212695,79.5847656 L104.873047,79.5847656 C107.700117,79.5847656 110,77.2848828 110,74.4578125 L110,39.64375 C110,36.8166797 107.700117,34.5167969 104.873047,34.5167969 L104.873047,34.5167969 Z M95.1550781,73.4324219 L54.8449219,73.4324219 L54.8449219,63.3671875 C54.8449219,60.8711133 56.4360547,58.6596875 58.8044336,57.8641211 L61.1209961,57.0852344 C60.9882422,57.8321289 60.9327344,58.5905078 60.961582,59.3547656 C60.9879687,60.0536719 61.0828516,60.7462891 61.2447266,61.4252344 C59.0026758,62.0139453 57.3438672,64.0574805 57.3438672,66.4816406 L57.3438672,69.8562695 C57.3438672,70.8108398 58.1205664,71.5875391 59.0751367,71.5875391 L60.0332617,71.5875391 C60.5996875,71.5875391 61.0586523,71.1285742 61.0586523,70.5621484 C61.0586523,69.9957227 60.5996875,69.5367578 60.0332617,69.5367578 L59.3946484,69.5367578 L59.3946484,66.4816406 C59.3946484,64.7308203 60.8183008,63.3063477 62.5688477,63.3049805 C62.5698047,63.3049805 62.570625,63.3051172 62.5714453,63.3051172 C62.5726758,63.3051172 62.574043,63.3049805 62.5752734,63.3049805 C64.3251367,63.307168 65.7479687,64.7312305 65.7479687,66.4815039 L65.7479687,69.5366211 L65.1093555,69.5366211 C64.5429297,69.5366211 64.0839648,69.9955859 64.0839648,70.5620117 C64.0839648,71.1284375 64.5429297,71.5874023 65.1093555,71.5874023 L66.0674805,71.5874023 C67.0220508,71.5874023 67.79875,70.8107031 67.79875,69.8561328 L67.79875,66.4815039 C67.79875,63.8582812 65.85625,61.6808984 63.3343359,61.3102539 C63.1458008,60.6470312 63.0368359,59.9658984 63.0108594,59.2771094 C62.9727148,58.2701758 63.1109375,57.2747266 63.4192383,56.3122266 L68.0222852,54.7644336 L73.8093164,60.5454492 C74.528457,61.2637695 75.6989063,61.2637695 76.4181836,60.5453125 L82.1475195,54.8217188 L87.180957,56.5140234 C87.5472266,57.4724219 87.7342578,58.5051953 87.7246875,59.5267578 C87.7160742,60.4438672 87.5454492,61.369043 87.2327734,62.2363867 C84.9767773,62.5822852 83.2433203,64.5349023 83.2433203,66.8844141 C83.2433203,69.4774219 85.3545312,71.5869922 87.9495898,71.5869922 C90.5446484,71.5869922 92.6559961,69.4772852 92.6559961,66.8844141 C92.6559961,64.7745703 91.2580469,62.9850586 89.3391992,62.3912891 C89.6152344,61.4677539 89.7664453,60.5036133 89.7756055,59.5461719 C89.7827148,58.7980469 89.7041016,58.0454102 89.546875,57.3093164 L91.1958398,57.8637109 C93.5639453,58.6592773 95.1550781,60.8707031 95.1550781,63.3667773 L95.1550781,73.4324219 Z M80.1763086,53.8927148 L75.1138867,58.9498047 L69.9409961,53.7822461 C70.5729102,53.1734375 70.953125,52.3241406 70.953125,51.4055273 L70.953125,49.9985547 C72.2133984,50.4191016 73.5580273,50.6498828 74.9543359,50.654668 C74.9697852,50.654668 74.9850977,50.6548047 75.0005469,50.6548047 C76.3963086,50.6548047 77.7580273,50.4353711 79.046875,50.0130469 L79.046875,51.4055273 C79.046875,52.3804688 79.4733008,53.2788477 80.1763086,53.8927148 L80.1763086,53.8927148 Z M87.9480859,64.2331641 L87.9491797,64.2331641 L87.9505469,64.2331641 C89.4143945,64.2335742 90.6053516,65.4230273 90.6053516,66.8848242 C90.6053516,68.3470313 89.4139844,69.5366211 87.9497266,69.5366211 C86.4854687,69.5366211 85.2942383,68.3470313 85.2942383,66.8848242 C85.2942383,65.4231641 86.4846484,64.2339844 87.9480859,64.2331641 Z M87.603418,40.6691406 L103.847656,40.6691406 L103.847656,73.4324219 L97.2058594,73.4324219 L97.2058594,63.3671875 C97.2058594,59.9892773 95.0530859,56.9965039 91.8492187,55.9201172 L81.9517383,52.5923828 C81.4408203,52.4206641 81.0975195,51.9437891 81.0975195,51.4055273 L81.0975195,49.1361328 C82.2015234,48.5452344 83.2251367,47.7891797 84.1370508,46.8802734 C85.8778906,45.1458594 87.0624219,43.00375 87.603418,40.6691406 L87.603418,40.6691406 Z M64.1124023,26.1975977 C64.1124023,23.9109766 65.9725977,22.0507812 68.2592188,22.0507812 L81.7406445,22.0507812 C84.0272656,22.0507812 85.8874609,23.9109766 85.8874609,26.1975977 L85.8874609,32.3432422 C84.8455273,32.2245703 83.5613281,31.912168 82.2437695,31.1816797 C81.0833008,30.538418 80.0796484,29.6773633 79.2608398,28.6227148 C78.7347461,27.9444531 77.7639062,27.7833984 77.0510547,28.2560352 C75.6472266,29.186543 74.147832,29.9751367 72.5942969,30.6002148 C69.9017578,31.6835742 67.0529492,32.2826758 64.1124023,32.3884961 L64.1124023,26.1975977 Z M64.1124023,34.4422852 C67.3168164,34.3355078 70.4229297,33.6845898 73.3599219,32.502793 C74.9271289,31.8722461 76.4436133,31.0877539 77.8723242,30.1690039 C78.8180078,31.3132031 79.9526367,32.2564258 81.2494141,32.975293 C82.9422656,33.9135938 84.59,34.2828711 85.8875977,34.4055078 L85.8875977,37.7287305 C85.8875977,40.6385156 84.751875,43.3727539 82.6896094,45.4277734 C81.8043555,46.3100195 80.7942773,47.0201367 79.6998437,47.5443164 C79.6545898,47.5619531 79.6108398,47.5823242 79.5691406,47.6059766 C78.1449414,48.2646875 76.5814258,48.6101758 74.961582,48.6039711 L74.9614453,48.6039711 C68.9793164,48.5833789 64.1124023,43.6466016 64.1124023,37.5993945 C64.1124023,37.5861328 64.1118555,34.4529492 64.1124023,34.4422852 Z M72.0292383,79.5847656 L77.970625,79.5847656 L77.970625,83.8476562 L72.0292383,83.8476562 L72.0292383,79.5847656 Z M81.3166797,85.8984375 C82.5750391,85.8984375 83.6325586,86.774668 83.9110547,87.9492188 L66.0889453,87.9492188 C66.3673047,86.774668 67.4248242,85.8984375 68.6833203,85.8984375 L81.3166797,85.8984375 Z" id="Icon"></path>
                </g>
            </g>
        </g>
    </g>
</svg>