<?xml version="1.0" encoding="UTF-8"?>
<svg width="28px" height="40px" viewBox="0 0 28 40" version="1.1" xmlns="http://www.w3.org/2000/svg" xmlns:xlink="http://www.w3.org/1999/xlink">
    <title>Icon</title>
    <defs>
        <path d="M20,0 C12.5010149,0 6.4,6.23730469 6.4,13.9038086 C6.4,23.5397949 20.0133732,40 20.0133732,40 C20.0133732,40 33.6,23.065918 33.6,13.9038086 C33.6,6.23730469 27.4992239,0 20,0 Z M24.103403,17.9748535 C22.9719403,19.1313476 21.4860895,19.7097168 20,19.7097168 C18.5141493,19.7097168 17.0278209,19.1313476 15.8968358,17.9748535 C13.6341492,15.6618653 13.6341492,11.8981934 15.8968358,9.58496094 C16.9924776,8.4643555 18.4499105,7.847168 20,7.847168 C21.5500895,7.847168 23.0072836,8.46459962 24.103403,9.58496094 C26.3660896,11.8981934 26.3660896,15.6618653 24.103403,17.9748535 Z" id="path-1"></path>
    </defs>
    <g id="Symbols" stroke="none" stroke-width="1" fill="none" fill-rule="evenodd">
        <g id="General-/-Pharmacy-Map-/-Search" transform="translate(-679.000000, -253.000000)">
            <g id="Map" transform="translate(340.000000, 0.000000)">
                <g id="Icon" transform="translate(333.000000, 253.000000)">
                    <mask id="mask-2" fill="white">
                        <use xlink:href="#path-1"></use>
                    </mask>
                    <g id="Shape" fill-rule="nonzero"></g>
                    <g id="Group" mask="url(#mask-2)" fill="#8DC63F">
                        <g id="Color">
                            <rect x="0" y="0" width="40" height="40"></rect>
                        </g>
                    </g>
                </g>
            </g>
        </g>
    </g>
</svg>