<?xml version="1.0" encoding="UTF-8"?>
<svg width="98px" height="78px" viewBox="0 0 98 78" version="1.1" xmlns="http://www.w3.org/2000/svg" xmlns:xlink="http://www.w3.org/1999/xlink">
    <title>62DF443B-DD62-41AF-B5C0-572F7049C097</title>
    <g id="Dashboard" stroke="none" stroke-width="1" fill="none" fill-rule="evenodd">
        <g id="Web-/-Provider-/-Dashboard-/-No-Filter-Results" transform="translate(-671.000000, -722.000000)">
            <g id="Group-7" transform="translate(672.000000, 722.000000)">
                <path d="M97,8.21282528 L96.8074506,58.5148349 C96.7852986,62.8872361 93.2423596,66.4089864 88.8728733,66.3868196 L26.9344355,66.1485265 C26.1535768,66.1485265 25.361642,66.2607459 24.6140113,66.4879556 L18.8974051,68.2100388 L6.44658429,71.9493008 C5.56465692,72.2180732 4.76026162,71.3715786 5.06623642,70.5098443 L10.4879438,54.9570636 C10.7814581,54.1202669 10.9295997,53.2363658 10.9406757,52.3510792 L11.1095849,7.88447956 C11.1220454,3.51069295 14.6760604,-0.0110573108 19.0330862,0 L87.2087026,0.261871407 L89.134544,0.272954807 C93.4915699,0.295121606 97.0220483,3.84180952 97,8.21282528" id="Fill-1" fill="#F3D417"></path>
                <polygon id="Fill-3" fill="#FFFFFF" points="69 31.8143963 56.2911799 31.7641766 56.3400063 19.0557997 41.8148432 19 41.7660168 31.7083769 29.0558016 31.6609472 29 46.1842087 41.7102152 46.2344284 41.6599937 58.9442003 56.1851568 59 56.2353782 46.2902281 68.9441984 46.3390528"></polygon>
                <path d="M92,13.2115051 L91.8074508,63.5139141 C91.7852988,67.88635 88.2423628,71.4095137 83.8728801,71.3873467 L21.9344946,71.1490517 C21.1536365,71.1490517 20.3617024,71.2612721 19.6140723,71.4884836 L13.8974709,73.209195 L1.44666063,76.9484867 C0.563349497,77.2200321 -0.23966062,76.3707599 0.0663139241,75.5090187 L5.48801671,59.9575 C5.78153076,59.1206967 5.92967228,58.2367885 5.94074828,57.3528804 L6.1096573,12.8831567 C6.12211781,8.51072083 9.67612982,4.9889426 14.033152,5 L82.2087109,5.26048805 L84.1331662,5.27157154 C88.4915728,5.29512395 92.0220483,8.84045459 92,13.2115051 Z" id="Stroke-5" stroke="#414042" stroke-width="1.403" stroke-linecap="round"></path>
            </g>
        </g>
    </g>
</svg>