<?xml version="1.0" encoding="utf-8"?>
<!-- Generator: Adobe Illustrator 16.0.0, SVG Export Plug-In . SVG Version: 6.00 Build 0)  -->
<!DOCTYPE svg PUBLIC "-//W3C//DTD SVG 1.1//EN" "http://www.w3.org/Graphics/SVG/1.1/DTD/svg11.dtd">
<svg version="1.1" id="Layer_1" xmlns="http://www.w3.org/2000/svg" xmlns:xlink="http://www.w3.org/1999/xlink" x="0px" y="0px"
	 width="25px" height="25px" viewBox="0 0 25 25" enable-background="new 0 0 25 25" xml:space="preserve">
<title>Icon / Arrow / Left</title>
<g id="Icon-_x2F_-Arrow-_x2F_-Left">
	<g id="Arrow" transform="translate(12.500000, 12.500000) scale(-1, 1) translate(-12.500000, -12.500000) ">
	</g>
	<defs>
		<filter id="Adobe_OpacityMaskFilter" filterUnits="userSpaceOnUse" x="0" y="0" width="25" height="25">
			<feColorMatrix  type="matrix" values="1 0 0 0 0  0 1 0 0 0  0 0 1 0 0  0 0 0 1 0"/>
		</filter>
	</defs>
	<mask maskUnits="userSpaceOnUse" x="0" y="0" width="25" height="25" id="mask-2">
		<g filter="url(#Adobe_OpacityMaskFilter)">
			<path id="path-1" fill="#FFFFFF" d="M5.539,11.262L16.854,0.513c0.722-0.684,1.889-0.684,2.607,0s0.719,1.792,0,2.476L9.449,12.5
				l10.011,9.51c0.72,0.684,0.72,1.793,0,2.477c-0.72,0.686-1.886,0.686-2.606,0L5.539,13.736C5.179,13.395,5,12.948,5,12.5
				C5,12.052,5.179,11.603,5.539,11.262z"/>
		</g>
	</mask>
	<g id="Group" mask="url(#mask-2)">
		<g id="Color">
			<rect fill="#428EC2" width="25" height="25"/>
		</g>
	</g>
</g>
</svg>