<?xml version="1.0" encoding="UTF-8"?>
<svg width="343px" height="352px" viewBox="0 0 343 352" version="1.1" xmlns="http://www.w3.org/2000/svg" xmlns:xlink="http://www.w3.org/1999/xlink">
    <title>ECF08B4F-DD6A-4171-94D3-E6BA09ED8173</title>
    <defs>
        <rect id="path-1" x="0" y="0" width="1410" height="850" rx="4"></rect>
        <filter x="-0.5%" y="-0.8%" width="101.2%" height="102.0%" filterUnits="objectBoundingBox" id="filter-3">
            <feOffset dx="2" dy="2" in="SourceAlpha" result="shadowOffsetOuter1"></feOffset>
            <feGaussianBlur stdDeviation="2.5" in="shadowOffsetOuter1" result="shadowBlurOuter1"></feGaussianBlur>
            <feColorMatrix values="0 0 0 0 0.298039216   0 0 0 0 0.298039216   0 0 0 0 0.298039216  0 0 0 0.1 0" type="matrix" in="shadowBlurOuter1"></feColorMatrix>
        </filter>
        <path d="M0.10116738,128.393956 C0.10116738,196.595911 55.1128759,251.8912 122.96506,251.8912 L122.96506,251.8912 C190.825025,251.8912 245.836734,196.595911 245.836734,128.393956 L245.836734,128.393956 C245.836734,60.1841778 190.825025,4.89671111 122.96506,4.89671111 L122.96506,4.89671111 C55.1128759,4.89671111 0.10116738,60.1841778 0.10116738,128.393956 L0.10116738,128.393956 Z" id="path-4"></path>
        <path d="M0.10116738,128.393956 C0.10116738,196.595911 55.1128759,251.8912 122.96506,251.8912 L122.96506,251.8912 C190.825025,251.8912 245.836734,196.595911 245.836734,128.393956 L245.836734,128.393956 C245.836734,60.1841778 190.825025,4.89671111 122.96506,4.89671111 L122.96506,4.89671111 C55.1128759,4.89671111 0.10116738,60.1841778 0.10116738,128.393956" id="path-6"></path>
        <path d="M0.10116738,128.393956 C0.10116738,196.595911 55.1128759,251.8912 122.96506,251.8912 L122.96506,251.8912 C190.825025,251.8912 245.836734,196.595911 245.836734,128.393956 L245.836734,128.393956 C245.836734,60.1841778 190.825025,4.89671111 122.96506,4.89671111 L122.96506,4.89671111 C55.1128759,4.89671111 0.10116738,60.1841778 0.10116738,128.393956" id="path-8"></path>
        <path d="M0.10116738,128.393956 C0.10116738,196.595911 55.1128759,251.8912 122.96506,251.8912 L122.96506,251.8912 C190.825025,251.8912 245.836734,196.595911 245.836734,128.393956 L245.836734,128.393956 C245.836734,60.1841778 190.825025,4.89671111 122.96506,4.89671111 L122.96506,4.89671111 C55.1128759,4.89671111 0.10116738,60.1841778 0.10116738,128.393956" id="path-10"></path>
        <path d="M0.10116738,128.393956 C0.10116738,196.595911 55.1128759,251.8912 122.96506,251.8912 L122.96506,251.8912 C190.825025,251.8912 245.836734,196.595911 245.836734,128.393956 L245.836734,128.393956 C245.836734,60.1841778 190.825025,4.89671111 122.96506,4.89671111 L122.96506,4.89671111 C55.1128759,4.89671111 0.10116738,60.1841778 0.10116738,128.393956" id="path-12"></path>
        <path d="M0.10116738,128.393956 C0.10116738,196.595911 55.1128759,251.8912 122.96506,251.8912 L122.96506,251.8912 C190.825025,251.8912 245.836734,196.595911 245.836734,128.393956 L245.836734,128.393956 C245.836734,60.1841778 190.825025,4.89671111 122.96506,4.89671111 L122.96506,4.89671111 C55.1128759,4.89671111 0.10116738,60.1841778 0.10116738,128.393956" id="path-14"></path>
        <path d="M0.10116738,128.393956 C0.10116738,196.595911 55.1128759,251.8912 122.96506,251.8912 L122.96506,251.8912 C190.825025,251.8912 245.836734,196.595911 245.836734,128.393956 L245.836734,128.393956 C245.836734,60.1841778 190.825025,4.89671111 122.96506,4.89671111 L122.96506,4.89671111 C55.1128759,4.89671111 0.10116738,60.1841778 0.10116738,128.393956" id="path-16"></path>
        <path d="M0.10116738,128.393956 C0.10116738,196.595911 55.1128759,251.8912 122.96506,251.8912 L122.96506,251.8912 C190.825025,251.8912 245.836734,196.595911 245.836734,128.393956 L245.836734,128.393956 C245.836734,60.1841778 190.825025,4.89671111 122.96506,4.89671111 L122.96506,4.89671111 C55.1128759,4.89671111 0.10116738,60.1841778 0.10116738,128.393956" id="path-18"></path>
        <path d="M0.10116738,128.393956 C0.10116738,196.595911 55.1128759,251.8912 122.96506,251.8912 L122.96506,251.8912 C190.825025,251.8912 245.836734,196.595911 245.836734,128.393956 L245.836734,128.393956 C245.836734,60.1841778 190.825025,4.89671111 122.96506,4.89671111 L122.96506,4.89671111 C55.1128759,4.89671111 0.10116738,60.1841778 0.10116738,128.393956 L0.10116738,128.393956 Z" id="path-20"></path>
    </defs>
    <g id="Dashboard" stroke="none" stroke-width="1" fill="none" fill-rule="evenodd">
        <g id="Web-/-Provider-/-Dashboard-/-Empty-State" transform="translate(-549.000000, -348.000000)">
            <g id="Color" fill="#F6F6FC">
                <rect x="0" y="0" width="1440" height="1317"></rect>
            </g>
            <g id="Table-/-Patients" transform="translate(15.000000, 190.000000)">
                <g id="Card" transform="translate(0.000000, 55.000000)">
                    <mask id="mask-2" fill="white">
                        <use xlink:href="#path-1"></use>
                    </mask>
                    <g id="Mask" fill="black" fill-opacity="1">
                        <use filter="url(#filter-3)" xlink:href="#path-1"></use>
                    </g>
                    <g id="White" mask="url(#mask-2)" fill="#FFFFFF">
                        <rect id="Color" x="0" y="0" width="1410" height="850"></rect>
                    </g>
                </g>
            </g>
            <g id="General-/-Logo-/-Icon" transform="translate(549.000000, 348.000000)">
                <g id="Logo" transform="translate(46.986301, 46.933333)">
                    <path d="M245.833621,128.39552 C245.833621,60.1857422 190.821912,4.89827556 122.969729,4.89827556 C55.109763,4.89827556 0.0980545377,60.1857422 0.0980545377,128.39552 C0.0980545377,196.605298 55.109763,251.892764 122.969729,251.892764 C190.821912,251.892764 245.833621,196.605298 245.833621,128.39552" id="Fill-23" fill="#F3D414"></path>
                    <g id="Content">
                        <g id="Group-27">
                            <mask id="mask-5" fill="white">
                                <use xlink:href="#path-4"></use>
                            </mask>
                            <g id="Clip-26"></g>
                            <path d="M-52.1657923,192.59328 C-53.2864155,187.532302 -51.8078154,182.221013 -48.2124823,178.380302 C-44.5004177,174.422258 -39.1152002,172.584036 -33.8000217,173.44448 C-31.2941835,173.851236 -28.2202516,174.477013 -24.9595491,175.141902 C-18.2902841,176.495147 -9.65992838,178.255147 -3.03735604,178.661902 C-0.274708348,174.140658 5.26615124,169.846258 15.289504,169.846258 C28.0755044,169.846258 34.6902946,166.279324 43.8576157,161.351324 C53.7175442,156.040036 65.9743614,149.43808 88.9082283,146.19968 C89.0794346,146.152747 89.250641,146.105813 89.4140652,146.066702 C91.5541444,145.511324 93.0560909,143.547947 93.0560909,141.302969 L93.0560909,141.052658 C93.0560909,139.51168 92.3090087,138.064569 91.0171791,137.071147 C76.1377921,125.658524 68.0288375,107.62048 69.3206671,88.82368 C70.1533524,76.7383467 74.8226161,65.4743467 82.8459676,56.2441244 C81.5619201,50.0802133 82.215617,44.9723022 82.9860455,41.7730133 C83.6241782,39.1682133 85.2350742,36.9701689 87.5230134,35.5934578 C89.8265168,34.2089244 92.5269077,33.8099911 95.1339132,34.4827022 C98.1300241,35.2571022 106.962715,37.0483911 124.34794,37.0483911 C124.4958,37.0483911 124.635878,37.0562133 124.775956,37.0640356 C139.468572,37.1031467 153.28181,42.85248 163.709833,53.27168 C174.239022,63.8082133 180.044474,77.8334578 180.044474,92.76608 C180.044474,107.291947 174.511396,121.035591 164.472479,131.478258 C159.787651,136.34368 157.211774,142.515413 157.211774,148.859236 L157.211774,149.22688 C157.211774,155.727147 159.803215,162.055324 164.324619,166.592213 C179.118403,181.446613 187.258486,201.189902 187.258486,222.192569 C187.258486,259.926969 156.184536,292.201458 111.694235,300.672924 C111.569721,300.696391 111.445208,300.719858 111.320694,300.735502 C102.4024,301.963591 93.8343015,302.550258 85.6008332,302.550258 C7.52296203,302.542436 -39.5120876,249.703324 -52.1657923,192.59328 L-52.1657923,192.59328 Z M172.41801,222.192569 C172.41801,205.179236 165.818784,189.182791 153.83434,177.144391 C146.550289,169.830613 142.371298,159.653902 142.371298,149.22688 L142.371298,148.859236 C142.371298,138.627769 146.433557,128.771769 153.803212,121.105991 C161.157302,113.46368 165.203997,103.39648 165.203997,92.76608 C165.203997,81.8306133 160.954967,71.5600356 153.2429,63.8551467 C145.577525,56.1893689 135.421877,51.9810133 124.612531,51.9810133 C124.53471,51.9810133 124.464671,51.9810133 124.38685,51.9810133 C124.223426,51.9731911 124.060002,51.9731911 123.896578,51.9653689 C111.235091,51.9419022 102.542478,51.01888 96.9704903,50.0802133 C97.0171829,51.0345244 97.1339145,52.07488 97.3673777,53.1856356 C98.3167946,57.7225244 97.0638756,62.5253689 94.021072,66.0375467 C88.153364,72.8037689 84.7292373,81.0405689 84.122233,89.8483911 C83.1728161,103.631147 89.1183452,116.850702 100.021076,125.212658 C105.02497,129.045547 107.888785,134.818347 107.888785,141.052658 L107.888785,141.302969 C107.888785,150.35328 101.818742,158.245902 93.1105656,160.514347 L92.3012266,160.725547 C92.0055065,160.803769 91.7020044,160.866347 91.3985023,160.91328 C70.8070494,163.760569 60.2078208,169.462969 50.8615113,174.50048 C41.0638396,179.78048 31.8031333,184.763236 15.289504,184.763236 C12.0988405,184.763236 9.89650441,185.537636 9.45292436,186.797013 C9.60078438,190.76288 6.56576297,193.273813 2.5657604,193.555413 C-6.1424164,194.189013 -18.204681,191.732836 -27.9011852,189.761636 C-31.0140277,189.128036 -33.9556638,188.533547 -36.1813462,188.165902 C-36.8350431,188.064213 -37.2941874,188.486613 -37.4187011,188.619591 C-37.7611137,188.987236 -37.706639,189.245369 -37.6832927,189.347058 C-31.1151951,218.961991 -15.0295816,244.955236 7.6163473,262.539591 C34.3634462,283.307591 69.460745,291.411413 109.110576,285.982791 C146.394647,278.809813 172.41801,252.605369 172.41801,222.192569 L172.41801,222.192569 Z" id="Fill-25" fill="#F7941E" mask="url(#mask-5)"></path>
                        </g>
                        <g id="Group-30">
                            <mask id="mask-7" fill="white">
                                <use xlink:href="#path-6"></use>
                            </mask>
                            <g id="Clip-29"></g>
                            <path d="M2.04046824,186.119609 C-8.39533613,186.870542 -25.9362034,182.28672 -34.994575,180.80832 C-40.8856294,179.846187 -46.2241542,185.118364 -44.9245425,190.969387 C-32.1930168,248.400142 18.6085723,306.002987 110.312911,293.346631 C151.682588,285.469653 179.838248,256.120676 179.838248,222.195698 C179.838248,202.530631 171.900499,184.742898 159.075589,171.86752 C153.106713,165.867876 149.791536,157.709298 149.791536,149.230009 L149.791536,148.854542 C149.791536,140.383076 153.277919,132.380942 159.137845,126.295253 C167.488045,117.612587 172.624235,105.793209 172.624235,92.7692089 C172.624235,66.0250311 150.982198,44.37312 124.344049,44.5217422 L124.344049,44.5060978 C106.670886,44.5060978 97.2389729,42.7304533 93.2934451,41.7057422 C91.9237944,41.3537422 90.5307974,42.1672533 90.1961669,43.5439644 C89.6125089,45.9375644 89.0988899,49.8877867 90.1027816,54.7140978 C90.5852722,57.0060089 89.9549216,59.36832 88.4296288,61.1361422 C81.7603638,68.8253867 77.4568591,78.6188089 76.7253411,89.3352533 C75.5502431,106.379876 83.1922713,121.687964 95.5191275,131.145031 C98.6086236,133.507342 100.468547,137.144676 100.468547,141.047964 L100.468547,141.306098 C100.468547,146.938098 96.6942255,151.87392 91.2700975,153.289742 C90.9743775,153.367964 90.6786574,153.446187 90.3907195,153.524409 L90.3907195,153.524409 C47.3167619,159.47712 45.1066437,177.303964 15.293395,177.303964 C2.59299777,177.303964 2.04046824,186.119609 2.04046824,186.119609" id="Fill-28" fill="#F3D414" mask="url(#mask-7)"></path>
                        </g>
                        <g id="Group-33">
                            <mask id="mask-9" fill="white">
                                <use xlink:href="#path-8"></use>
                            </mask>
                            <g id="Clip-32"></g>
                            <path d="M172.173651,87.9460267 C176.609452,90.1675378 180.835136,93.5467378 192.547205,89.9094044 C198.399349,88.0946489 203.16978,95.4162489 200.944098,101.149938 C197.270944,110.630471 185.831248,127.714204 162.243684,128.480782 C141.46546,129.153493 131.30203,116.763093 124.251442,110.106382 C121.084124,107.110471 124.274788,101.900871 128.391522,103.293227 C134.391526,105.334827 141.979079,106.727182 150.049124,105.31136 C168.648357,102.049493 172.173651,87.9460267 172.173651,87.9460267" id="Fill-31" fill="#F7941E" mask="url(#mask-9)"></path>
                        </g>
                        <g id="Group-36">
                            <mask id="mask-11" fill="white">
                                <use xlink:href="#path-10"></use>
                            </mask>
                            <g id="Clip-35"></g>
                            <path d="M93.3090093,262.087467 L63.9004301,160.0544 C70.7720299,157.426133 79.1922687,155.071644 90.3907195,153.522844 L90.3907195,153.522844 C90.6864396,153.444622 90.9743775,153.3664 91.2700975,153.288178 C96.6942255,151.880178 100.468547,146.936533 100.468547,141.304533 L100.468547,141.054222 L149.884921,151.684622 C151.200097,159.890133 153.768192,167.102222 163.651467,176.919111 C174.733186,187.917156 179.838248,208.943289 179.838248,222.194133 C179.838248,256.119111 151.682588,285.468089 110.312911,293.345067 C97.6202961,295.097244 75.1300093,296.9824 51.9782435,291.444267 C51.9782435,291.444267 32.8887371,269.135289 29.0288124,239.919289 C25.3867867,212.447644 93.3090093,262.087467 93.3090093,262.087467" id="Fill-34" fill="#FFFFFF" mask="url(#mask-11)"></path>
                        </g>
                        <g id="Group-39">
                            <mask id="mask-13" fill="white">
                                <use xlink:href="#path-12"></use>
                            </mask>
                            <g id="Clip-38"></g>
                            <path d="M57.1206592,238.708409 L49.8677363,210.266809 L15.2918386,183.209742 C15.2918386,183.209742 -3.06614983,171.273031 -2.91917822,186.135253 C-2.76264769,200.989653 5.49416695,210.126009 15.8288039,216.594987 C19.0039033,238.974364 36.9650043,245.490276 43.175125,245.427698 C45.665399,252.303431 61.8521798,265.765476 93.3074529,262.089031 C124.762726,258.412587 57.1206592,238.708409 57.1206592,238.708409" id="Fill-37" fill="#F7941E" mask="url(#mask-13)"></path>
                        </g>
                        <g id="Group-42">
                            <mask id="mask-15" fill="white">
                                <use xlink:href="#path-14"></use>
                            </mask>
                            <g id="Clip-41"></g>
                            <path d="M45.6630643,240.512213 C27.9899012,238.290702 20.5424256,221.918791 20.5424256,212.485191 C8.94708746,206.931413 2.04435929,195.557902 2.04435929,186.11648 C2.04435929,186.11648 2.58910672,177.308658 15.289504,177.308658 C45.1105348,177.308658 47.320653,159.481813 90.3868285,153.52128 L90.3868285,153.52128 C90.3946106,153.52128 90.3946106,153.52128 90.4023927,153.52128 C113.593069,151.158969 150.021108,164.480213 155.546403,201.659236 C161.063917,238.84608 127.935491,258.824036 100.877108,261.600924 C73.8265065,264.377813 49.2506153,255.773369 45.6630643,240.512213" id="Fill-40" fill="#F3D414" mask="url(#mask-15)"></path>
                        </g>
                        <g id="Group-45">
                            <mask id="mask-17" fill="white">
                                <use xlink:href="#path-16"></use>
                            </mask>
                            <g id="Clip-44"></g>
                            <path d="M100.88022,261.602489 C127.938604,258.8256 161.067029,238.847644 155.549516,201.6608 C150.646789,168.658844 121.393852,154.461511 98.6623202,153.342933 C121.884125,152.060089 156.148738,165.694222 161.487263,201.6608 C167.004776,238.847644 133.876351,258.8256 106.817967,261.602489 C104.265437,261.860622 101.744034,262.024889 99.2459781,262.087467 L99.0669897,261.751111 C99.673994,261.704178 100.273216,261.665067 100.88022,261.602489" id="Fill-43" fill="#F3D414" mask="url(#mask-17)"></path>
                        </g>
                        <g id="Group-48">
                            <mask id="mask-19" fill="white">
                                <use xlink:href="#path-18"></use>
                            </mask>
                            <g id="Clip-47"></g>
                            <path d="M90.3883849,153.52128 L90.3883849,153.52128 C90.396167,153.52128 90.396167,153.52128 90.396167,153.52128 C113.594625,151.158969 150.022664,164.480213 155.54796,201.659236 C161.065473,238.84608 127.937047,258.824036 100.878664,261.600924 C98.3261332,261.86688 95.7969487,262.023324 93.3066747,262.085902 C93.3066747,262.085902 78.7230077,246.652658 68.3883708,215.692302 C58.6373917,186.484124 43.7580048,169.846258 43.7580048,169.846258 C54.4739649,164.22208 65.7424547,156.931769 90.3883849,153.52128" id="Fill-46" fill="#FFFFFF" mask="url(#mask-19)"></path>
                        </g>
                        <mask id="mask-21" fill="white">
                            <use xlink:href="#path-20"></use>
                        </mask>
                        <g id="Clip-50"></g>
                        <polygon id="Fill-49" fill="#C72128" mask="url(#mask-21)" points="86.9027795 229.918578 134.75495 229.918578 134.75495 181.819733 86.9027795 181.819733"></polygon>
                        <polygon id="Fill-51" fill="#F3D414" mask="url(#mask-21)" points="90.8786576 198.484196 103.415631 198.484196 103.415631 185.882596 118.279453 185.882596 118.279453 198.484196 130.816426 198.484196 130.816426 213.42464 118.279453 213.42464 118.279453 226.02624 103.415631 226.02624 103.415631 213.42464 90.8786576 213.42464"></polygon>
                        <path d="M21.2778347,218.080427 C20.787562,216.077938 20.5385346,214.169316 20.5385346,212.479716 C37.1688955,218.080427 58.6397264,212.479716 58.6397264,212.479716 C58.6397264,212.479716 40.14166,221.655182 21.2778347,218.080427" id="Fill-52" fill="#F7941E" mask="url(#mask-21)"></path>
                        <path d="M70.2342863,236.349227 C70.2342863,236.349227 64.1564614,243.842916 47.63505,245.368249 C46.7401078,243.835093 46.0630646,242.215893 45.6661772,240.510649 C58.6389482,242.176782 70.2342863,236.349227 70.2342863,236.349227" id="Fill-53" fill="#F7941E" mask="url(#mask-21)"></path>
                        <polygon id="Fill-54" fill="#F7941E" mask="url(#mask-21)" points="72.5494629 103.634276 160.837457 53.7910756 153.56897 40.78272 72.5805914 86.5114311"></polygon>
                        <path d="M148.97208,35.1006578 L148.97208,35.1006578 C150.077139,35.1006578 151.158852,35.2101689 152.201654,35.4291911 C152.723055,35.53088 153.236674,35.6638578 153.734729,35.8203022 C160.256134,37.8619022 164.987655,43.9710578 164.987655,51.1987911 C164.987655,58.4187022 160.256134,64.5278578 153.734729,66.5694578 C153.236674,66.7259022 152.723055,66.85888 152.201654,66.9683911 C151.158852,67.1795911 150.077139,67.2891022 148.97208,67.2891022 C140.131607,67.2891022 132.956506,60.0848356 132.956506,51.1987911 C132.956506,42.3049244 140.131607,35.1006578 148.97208,35.1006578" id="Fill-55" fill="#428EC2" mask="url(#mask-21)"></path>
                        <path d="M132.959618,51.1964444 C132.959618,60.0824889 140.126938,67.2945778 148.975193,67.2945778 C157.815666,67.2945778 164.982985,60.0824889 164.982985,51.1964444 C164.982985,42.3104 157.815666,35.0983111 148.975193,35.0983111 C140.126938,35.0983111 132.959618,42.3104 132.959618,51.1964444" id="Fill-56" fill="#428EC2" mask="url(#mask-21)"></path>
                        <path d="M148.97208,44.0500622 C152.894262,44.0500622 156.084925,47.2571733 156.084925,51.1995733 C156.084925,55.1341511 152.894262,58.3412622 148.97208,58.3412622 C145.049899,58.3412622 141.859235,55.1341511 141.859235,51.1995733 C141.859235,47.2571733 145.049899,44.0500622 148.97208,44.0500622" id="Fill-57" fill="#FFFFFF" mask="url(#mask-21)"></path>
                        <path d="M97.4957824,103.634276 C97.4957824,98.9722311 101.25454,95.1940978 105.900457,95.1940978 C110.538592,95.1940978 114.29735,98.9722311 114.29735,103.634276 C114.29735,106.137387 113.207855,108.382364 111.488009,109.923342 C114.032758,119.325653 122.281791,136.839609 148.91994,146.766009 C163.301272,152.132053 176.624238,164.326898 184.717628,178.829298 C185.02113,176.263609 186.60868,173.932587 189.137865,172.845298 C192.904404,171.218276 197.262383,172.986098 198.873279,176.772053 L203.472504,187.598009 C205.0834,191.383964 203.332426,195.764409 199.565887,197.383609 C198.61647,197.798187 197.628142,197.98592 196.655379,197.98592 C193.776,197.98592 191.036699,196.288498 189.830472,193.456853 L189.791562,193.362987 C189.332417,194.583253 188.367436,195.607964 187.044478,196.053831 C186.577552,196.202453 186.102843,196.280676 185.635917,196.280676 C183.768211,196.280676 182.032802,195.091698 181.410233,193.222187 C175.807117,176.30272 161.503606,161.002453 145.822662,155.159253 C114.756494,143.574542 105.441313,122.697031 102.639755,111.417387 C99.6202974,110.142364 97.4957824,107.138631 97.4957824,103.634276" id="Fill-58" fill="#428EC2" mask="url(#mask-21)"></path>
                    </g>
                </g>
            </g>
        </g>
    </g>
</svg>