<?xml version="1.0" encoding="UTF-8"?>
<svg width="92px" height="100px" viewBox="0 0 92 100" version="1.1" xmlns="http://www.w3.org/2000/svg" xmlns:xlink="http://www.w3.org/1999/xlink">
    <title>Icon</title>
    <g id="Visit-Item" stroke="none" stroke-width="1" fill="none" fill-rule="evenodd">
        <g id="Web-/-Provider-/-Visit-Item-/-In-Progress-(Null-Orders)" transform="translate(-674.000000, -220.000000)" fill="#4C4C4C" fill-rule="nonzero">
            <g id="Content" transform="translate(375.000000, 105.000000)">
                <g id="Null-Value" transform="translate(0.000000, 65.000000)">
                    <path d="M384,133.333333 C384,130.57191 381.761424,128.333333 379,128.333333 L372.333333,128.333333 C371.764267,128.338857 371.200428,128.442604 370.666667,128.64 L370.666667,126.666667 C370.666667,123.905243 368.42809,121.666667 365.666667,121.666667 C362.905243,121.666667 360.666618,123.905243 360.666618,126.666667 L360.666618,133.333333 C360.657922,135.309357 361.818718,137.103497 363.624747,137.905374 C365.430776,138.707251 367.540109,138.365048 369,137.033333 C369.911112,137.865587 371.099335,138.328994 372.333333,138.333333 L379,138.333333 C380.326082,138.333333 381.597852,137.806549 382.535534,136.868867 C383.473216,135.931185 384,134.659416 384,133.333333 L384,133.333333 Z M365.666667,125 C366.587141,125 367.333333,125.746192 367.333333,126.666667 L367.333333,128.333333 L364,128.333333 L364,126.666667 C364,125.746192 364.746192,125 365.666667,125 Z M365.666667,135 C364.746192,135 364,134.253808 364,133.333333 L364,131.666667 L367.333333,131.666667 L367.333333,133.333333 C367.333333,134.253808 366.587141,135 365.666667,135 Z M370.666667,133.333333 C370.666667,132.412859 371.412859,131.666667 372.333333,131.666667 L374,131.666667 L374,135 L372.333333,135 C371.412859,135 370.666667,134.253808 370.666667,133.333333 Z M354,50 C354.44541,50.001849 354.871548,50.1819073 355.183333,50.5 L355.183333,50.5 L371.85,67.3 C372.163104,67.6069507 372.33763,68.0282214 372.333333,68.4666667 L372.333333,68.4666667 L372.333333,95 L380.666667,95 C383.424671,95.008237 385.65843,97.2419953 385.666667,100 L385.666667,100 L385.666667,106.666667 C385.666667,107.587141 384.920475,108.333333 384,108.333333 L384,108.333333 L379,108.333333 L379,110 C385.440276,110.007348 390.659319,115.226391 390.666667,121.666667 L390.666667,121.666667 L390.666667,148.333333 C390.666667,149.253808 389.920475,150 389,150 L389,150 L352.333333,150 C351.412859,150 350.666667,149.253808 350.666667,148.333333 L350.666667,148.333333 L350.666667,140 L300.666667,140 C299.746192,140 299,139.253808 299,138.333333 L299,138.333333 L299,51.6666667 C299,50.7461921 299.746192,50 300.666667,50 L300.666667,50 Z M375.666667,108.333333 L365.666667,108.333333 L365.666667,110 C365.661175,111.83867 364.172003,113.327842 362.333333,113.333333 C358.376666,113.343463 354.968715,116.125463 354.166667,120 L354.166667,120 L359,120 C359.920475,120 360.666667,120.746192 360.666667,121.666667 C360.666667,122.587141 359.920475,123.333333 359,123.333333 L359,123.333333 L354,123.333333 L354,140 L377.333333,140 C378.253808,140 379,140.746192 379,141.666667 C379,142.587141 378.253808,143.333333 377.333333,143.333333 L377.333333,143.333333 L354,143.333333 L354,146.666667 L387.333333,146.666667 L387.333333,143.333333 L384,143.333333 C383.079525,143.333333 382.333333,142.587141 382.333333,141.666667 C382.333333,140.746192 383.079525,140 384,140 L384,140 L387.333333,140 L387.333333,123.333333 L372.333333,123.333333 C371.412859,123.333333 370.666667,122.587141 370.666667,121.666667 C370.666667,120.746192 371.412859,120 372.333333,120 L372.333333,120 L387.166667,120 C386.364618,116.125463 382.956667,113.343463 379,113.333333 C377.16133,113.327842 375.672158,111.83867 375.666667,110 L375.666667,110 L375.666667,108.333333 Z M352.333333,53.3333333 L302.333333,53.3333333 L302.333333,136.666667 L350.666667,136.666667 L350.666667,121.666667 C350.674014,115.226391 355.893057,110.007348 362.333333,110 L362.333333,110 L362.333333,108.333333 L357.333333,108.333333 C356.412859,108.333333 355.666667,107.587141 355.666667,106.666667 L355.666667,106.666667 L355.666667,100 C355.674904,97.2419953 357.908662,95.008237 360.666667,95 L360.666667,95 L369,95 L369,70 L357.333333,70 C354.575329,69.991763 352.34157,67.7580047 352.333333,65 L352.333333,65 L352.333333,53.3333333 Z M379,131.666667 C379.920475,131.666667 380.666667,132.412859 380.666667,133.333333 C380.666667,134.253808 379.920475,135 379,135 L377.333333,135 L377.333333,131.666667 L379,131.666667 Z M344,126.666667 C344.920475,126.666667 345.666667,127.412859 345.666667,128.333333 C345.666667,129.253808 344.920475,130 344,130 L344,130 L314,130 C313.079525,130 312.333333,129.253808 312.333333,128.333333 C312.333333,127.412859 313.079525,126.666667 314,126.666667 L314,126.666667 Z M344,120 C344.920475,120 345.666667,120.746192 345.666667,121.666667 C345.666667,122.587141 344.920475,123.333333 344,123.333333 L344,123.333333 L314,123.333333 C313.079525,123.333333 312.333333,122.587141 312.333333,121.666667 C312.333333,120.746192 313.079525,120 314,120 L314,120 Z M344,113.333333 C344.920475,113.333333 345.666667,114.079525 345.666667,115 C345.666667,115.920475 344.920475,116.666667 344,116.666667 L344,116.666667 L314,116.666667 C313.079525,116.666667 312.333333,115.920475 312.333333,115 C312.333333,114.079525 313.079525,113.333333 314,113.333333 L314,113.333333 Z M317.333333,106.666667 C318.253808,106.666667 319,107.412859 319,108.333333 C319,109.253808 318.253808,110 317.333333,110 L317.333333,110 L314,110 C313.079525,110 312.333333,109.253808 312.333333,108.333333 C312.333333,107.412859 313.079525,106.666667 314,106.666667 L314,106.666667 Z M347.333333,106.666667 C348.253808,106.666667 349,107.412859 349,108.333333 C349,109.253808 348.253808,110 347.333333,110 L347.333333,110 L324,110 C323.079525,110 322.333333,109.253808 322.333333,108.333333 C322.333333,107.412859 323.079525,106.666667 324,106.666667 L324,106.666667 Z M380.666667,98.3333333 L360.666667,98.3333333 C359.746192,98.3333333 359,99.0795254 359,100 L359,100 L359,105 L382.333333,105 L382.333333,100 C382.333333,99.0795254 381.587141,98.3333333 380.666667,98.3333333 L380.666667,98.3333333 Z M317.333333,100 C318.253808,100 319,100.746192 319,101.666667 C319,102.587141 318.253808,103.333333 317.333333,103.333333 L317.333333,103.333333 L314,103.333333 C313.079525,103.333333 312.333333,102.587141 312.333333,101.666667 C312.333333,100.746192 313.079525,100 314,100 L314,100 Z M347.333333,100 C348.253808,100 349,100.746192 349,101.666667 C349,102.587141 348.253808,103.333333 347.333333,103.333333 L347.333333,103.333333 L324,103.333333 C323.079525,103.333333 322.333333,102.587141 322.333333,101.666667 C322.333333,100.746192 323.079525,100 324,100 L324,100 Z M317.333333,93.3333333 C318.253808,93.3333333 319,94.0795254 319,95 C319,95.9204746 318.253808,96.6666667 317.333333,96.6666667 L317.333333,96.6666667 L314,96.6666667 C313.079525,96.6666667 312.333333,95.9204746 312.333333,95 C312.333333,94.0795254 313.079525,93.3333333 314,93.3333333 L314,93.3333333 Z M347.333333,93.3333333 C348.253808,93.3333333 349,94.0795254 349,95 C349,95.9204746 348.253808,96.6666667 347.333333,96.6666667 L347.333333,96.6666667 L324,96.6666667 C323.079525,96.6666667 322.333333,95.9204746 322.333333,95 C322.333333,94.0795254 323.079525,93.3333333 324,93.3333333 L324,93.3333333 Z M340.666667,60 L340.666667,68.3333333 L349,68.3333333 L349,78.3333333 L340.666667,78.3333333 L340.666667,86.6666667 L330.666667,86.6666667 L330.666667,78.3333333 L322.333333,78.3333333 L322.333333,68.3333333 L330.666667,68.3333333 L330.666667,60 L340.666667,60 Z M337.333333,63.3333333 L334,63.3333333 L334,71.6666667 L325.666667,71.6666667 L325.666667,75 L334,75 L334,83.3333333 L337.333333,83.3333333 L337.333333,75 L345.666667,75 L345.666667,71.6666667 L337.333333,71.6666667 L337.333333,63.3333333 Z M355.666667,55.7166667 L355.666667,65 C355.666667,65.9204746 356.412859,66.6666667 357.333333,66.6666667 L357.333333,66.6666667 L366.533333,66.6666667 L355.666667,55.7166667 Z" id="Icon"></path>
                </g>
            </g>
        </g>
    </g>
</svg>