<?xml version="1.0" encoding="UTF-8"?>
<svg width="25px" height="25px" viewBox="0 0 25 25" version="1.1" xmlns="http://www.w3.org/2000/svg" xmlns:xlink="http://www.w3.org/1999/xlink">
    <title>Group</title>
    <defs>
        <path d="M12.5,0 C19.2473145,0 25,5.76118164 25,12.5 C25,19.247998 19.2373047,25 12.5,25 C5.75268555,25 0,19.2388184 0,12.5 C0,5.75200195 5.76269531,0 12.5,0 Z M12.5,0.9765625 C6.25366211,0.9765625 0.9765625,6.25366211 0.9765625,12.5 C0.9765625,18.7463379 6.25366211,24.0234375 12.5,24.0234375 C18.7463379,24.0234375 24.0234375,18.7463379 24.0234375,12.5 C24.0234375,6.25366211 18.7463379,0.9765625 12.5,0.9765625 Z M12.5,2.09960938 C18.1590332,2.09960938 22.9003906,6.84921875 22.9003906,12.5 C22.9003906,18.1590332 18.1507813,22.9003906 12.5,22.9003906 C6.8409668,22.9003906 2.09960938,18.1507813 2.09960938,12.5 C2.09960938,9.93046875 3.04570312,7.39404297 4.69541016,5.54101562 C4.87475586,5.33974609 5.18330078,5.32163086 5.38476562,5.50102539 C5.58618164,5.68032227 5.60410156,5.98896484 5.42475586,6.19038086 C3.93217773,7.86694336 3.07617188,10.1666992 3.07617188,12.5 C3.07617188,17.608252 7.39174805,21.9238281 12.5,21.9238281 C17.608252,21.9238281 21.9238281,17.608252 21.9238281,12.5 C21.9238281,7.39174805 17.608252,3.07617188 12.5,3.07617188 C11.0746582,3.07617188 9.57148438,3.40288086 8.37602539,3.97255859 C8.1324707,4.08867188 7.84116211,3.98520508 7.72519531,3.74179688 C7.60917969,3.49838867 7.71254883,3.20698242 7.95595703,3.0909668 C9.27807617,2.4609375 10.9343262,2.09960938 12.5,2.09960938 Z M14.453125,6.15234375 C14.7227539,6.15234375 14.9414062,6.37099609 14.9414062,6.640625 L14.9414062,6.640625 L14.9414062,10.0585938 L18.359375,10.0585938 C18.6290039,10.0585938 18.8476562,10.2772461 18.8476562,10.546875 L18.8476562,10.546875 L18.8476562,14.453125 C18.8476562,14.7227539 18.6290039,14.9414062 18.359375,14.9414062 L18.359375,14.9414062 L14.9414062,14.9414062 L14.9414062,18.359375 C14.9414062,18.6290039 14.7227539,18.8476562 14.453125,18.8476562 L14.453125,18.8476562 L10.546875,18.8476562 C10.2772461,18.8476562 10.0585938,18.6290039 10.0585938,18.359375 L10.0585938,18.359375 L10.0585938,14.9414062 L6.640625,14.9414062 C6.37099609,14.9414062 6.15234375,14.7227539 6.15234375,14.453125 L6.15234375,14.453125 L6.15234375,10.546875 C6.15234375,10.2772461 6.37099609,10.0585938 6.640625,10.0585938 L6.640625,10.0585938 L10.0585938,10.0585938 L10.0585938,6.640625 C10.0585938,6.37099609 10.2772461,6.15234375 10.546875,6.15234375 L10.546875,6.15234375 Z M13.9648438,7.12890625 L11.0351562,7.12890625 L11.0351562,10.546875 C11.0351562,10.8165039 10.8165039,11.0351562 10.546875,11.0351562 L10.546875,11.0351562 L7.12890625,11.0351562 L7.12890625,13.9648438 L10.546875,13.9648438 C10.8165039,13.9648438 11.0351562,14.1834961 11.0351562,14.453125 L11.0351562,14.453125 L11.0351562,17.8710938 L13.9648438,17.8710938 L13.9648438,14.453125 C13.9648438,14.1834961 14.1834961,13.9648438 14.453125,13.9648438 L14.453125,13.9648438 L17.8710938,13.9648438 L17.8710938,11.0351562 L14.453125,11.0351562 C14.1834961,11.0351562 13.9648438,10.8165039 13.9648438,10.546875 L13.9648438,10.546875 L13.9648438,7.12890625 Z M6.49414062,4.05273438 C6.76367188,4.05273438 6.98242188,4.27148438 6.98242188,4.54101562 C6.98242188,4.81054688 6.76367187,5.02929688 6.49414062,5.02929688 C6.22460938,5.02929688 6.00585938,4.81054688 6.00585938,4.54101562 C6.00585938,4.27148438 6.22460938,4.05273438 6.49414062,4.05273438 Z" id="path-1"></path>
    </defs>
    <g id="Symbols" stroke="none" stroke-width="1" fill="none" fill-rule="evenodd">
        <g id="Group">
            <mask id="mask-2" fill="white">
                <use xlink:href="#path-1"></use>
            </mask>
            <g id="Icon" fill-rule="nonzero"></g>
            <g mask="url(#mask-2)" fill="#428EC2" id="Color">
                <g>
                    <rect x="0" y="0" width="25" height="25"></rect>
                </g>
            </g>
        </g>
    </g>
</svg>