<?xml version="1.0" encoding="UTF-8"?>
<svg width="25px" height="25px" viewBox="0 0 25 25" version="1.1" xmlns="http://www.w3.org/2000/svg" xmlns:xlink="http://www.w3.org/1999/xlink">
    <title>Icon / Trash</title>
    <defs>
        <path d="M3.7198058,7.44274103 L3.7198058,21.8676911 C3.7198058,22.7202939 4.04314965,23.5209812 4.6079962,24.0954818 C5.17024084,24.6715833 5.95270002,24.9986278 6.77158557,25 L18.2284145,25 C19.0475366,24.9986278 19.8299957,24.6715833 20.3920038,24.0954818 C20.9568504,23.5209812 21.2801943,22.7202939 21.2801943,21.8676911 L21.2801943,7.44274103 C22.4030278,7.15457593 23.1306107,6.10574643 22.9804107,4.99173674 C22.8299743,3.8779558 21.8485888,3.04479273 20.6867269,3.04456405 L17.5864574,3.04456405 L17.5864574,2.31271618 C17.5900054,1.69727785 17.3383317,1.1063107 16.8877318,0.671547343 C16.4371319,0.237012673 15.8249782,-0.00495452703 15.1884614,0 L9.8115386,0 C9.17502181,-0.00495452703 8.56286818,0.237012673 8.11226825,0.671547343 C7.66166832,1.1063107 7.40999464,1.69727785 7.41354269,2.31271618 L7.41354269,3.04456405 L4.31327311,3.04456405 C3.1514112,3.04479273 2.17002582,3.8779558 2.01958924,4.99173674 C1.8693893,6.10574643 2.59697221,7.15457593 3.7198058,7.44274103 Z M18.2284145,23.8290434 L6.77158557,23.8290434 C5.73627011,23.8290434 4.93086707,22.9691222 4.93086707,21.8676911 L4.93086707,7.49419907 L20.069133,7.49419907 L20.069133,21.8676911 C20.069133,22.9691222 19.2637299,23.8290434 18.2284145,23.8290434 Z M8.62460397,2.31271618 C8.62058282,2.00785582 8.74452737,1.71443055 8.9682899,1.49922155 C9.19181584,1.28401255 9.49600034,1.16577334 9.8115386,1.17103351 L15.1884614,1.17103351 C15.5039996,1.16577334 15.8081842,1.28401255 16.0317101,1.49922155 C16.2554727,1.71420186 16.3794172,2.00785582 16.3753961,2.31271618 L16.3753961,3.04456405 L8.62460397,3.04456405 L8.62460397,2.31271618 Z M12.5000001,9.05760907 C12.8344611,9.05760907 13.1055307,9.31970211 13.1055307,9.64308736 L13.1055307,9.64308736 L13.1055307,20.7086271 C13.1055307,21.0317836 12.8344611,21.2941054 12.5000001,21.2941054 C12.165539,21.2941054 11.8944694,21.0317836 11.8944694,20.7086271 L11.8944694,20.7086271 L11.8944694,9.64308736 C11.8944694,9.31970211 12.165539,9.05760907 12.5000001,9.05760907 Z M16.0726308,9.05760907 C16.4070919,9.05760907 16.6781615,9.31970211 16.6781615,9.64308736 L16.6781615,9.64308736 L16.6781615,20.7086271 C16.6781615,21.0317836 16.4070919,21.2941054 16.0726308,21.2941054 C15.7381697,21.2941054 15.4671002,21.0317836 15.4671002,20.7086271 L15.4671002,20.7086271 L15.4671002,9.64308736 C15.4671002,9.31970211 15.7381697,9.05760907 16.0726308,9.05760907 Z M8.92736929,9.05760907 C9.26183032,9.05760907 9.53289992,9.31970211 9.53289992,9.64308736 L9.53289992,9.64308736 L9.53289992,20.7086271 C9.53289992,21.0317836 9.26183032,21.2941054 8.92736929,21.2941054 C8.59290819,21.2941054 8.32183865,21.0317836 8.32183865,20.7086271 L8.32183865,20.7086271 L8.32183865,9.64308736 C8.32183865,9.31970211 8.59290819,9.05760907 8.92736929,9.05760907 Z M20.6867269,4.21552063 C21.2887095,4.21552063 21.7766821,4.68733382 21.7766821,5.26938156 C21.7766821,5.8514293 21.2887095,6.32324248 20.6867269,6.32324248 L4.31327311,6.32324248 C3.71129046,6.32324248 3.22331796,5.8514293 3.22331796,5.26938156 C3.22331796,4.68733382 3.71129046,4.21552063 4.31327311,4.21552063 L20.6867269,4.21552063 Z" id="path-1"></path>
    </defs>
    <g id="Icon-/-Trash" stroke="none" stroke-width="1" fill="none" fill-rule="evenodd">
        <mask id="mask-2" fill="white">
            <use xlink:href="#path-1"></use>
        </mask>
        <g id="Trash" fill-rule="nonzero"></g>
        <g id="Group" mask="url(#mask-2)" fill="#428EC2">
            <g id="Color">
                <rect x="0" y="0" width="25" height="25"></rect>
            </g>
        </g>
    </g>
</svg>