<?xml version="1.0" encoding="UTF-8"?>
<svg width="25px" height="25px" viewBox="0 0 25 25" version="1.1" xmlns="http://www.w3.org/2000/svg" xmlns:xlink="http://www.w3.org/1999/xlink">
    <title>Icon / Up &amp; Down Arrows</title>
    <defs>
        <path d="M17.7738666,17.2520508 C18.0753778,17.5876387 18.0753778,18.1323522 17.7738666,18.4681457 L13.043991,23.7485147 C12.8936958,23.9165143 12.6971702,24 12.5000921,24 C12.3030139,24 12.1050149,23.9165143 11.9554565,23.7485147 L7.22558081,18.4681457 C6.9248064,18.1315297 6.9248064,17.5868162 7.22558081,17.2512283 C7.52635523,16.9162572 8.01426179,16.9162572 8.31485202,17.2512283 L12.5000921,21.9235498 L16.6845954,17.2520508 C16.9853698,16.9162572 17.4730922,16.9162572 17.7738666,17.2520508 Z M12.5000921,1 C12.6971702,1 12.8936958,1.08348572 13.043991,1.25148531 L13.043991,1.25148531 L17.7738666,6.53185427 C18.0753778,6.86764781 18.0753778,7.41236129 17.7738666,7.74794921 C17.4730922,8.08374276 16.9853698,8.08374276 16.6845954,7.74794921 L16.6845954,7.74794921 L12.5000921,3.07645024 L8.31485202,7.74877173 C8.01426179,8.08374276 7.52635523,8.08374276 7.22558081,7.74877173 C6.9248064,7.41318381 6.9248064,6.86847033 7.22558081,6.53185427 L7.22558081,6.53185427 L11.9554565,1.25148531 C12.1050149,1.08348572 12.3030139,1 12.5000921,1 Z" id="path-1"></path>
    </defs>
    <g id="Icon-/-Up-&amp;-Down-Arrows" stroke="none" stroke-width="1" fill="none" fill-rule="evenodd">
        <mask id="mask-2" fill="white">
            <use xlink:href="#path-1"></use>
        </mask>
        <g id="Arrow-2"></g>
        <g id="Group" mask="url(#mask-2)" fill="#428EC2">
            <g id="Color">
                <rect x="0" y="0" width="25" height="25"></rect>
            </g>
        </g>
    </g>
</svg>